<svg id="圖層_1" data-name="圖層 1" xmlns="http://www.w3.org/2000/svg" viewBox="0 0 190 185"><defs><style>.cls-1{fill:#f0a978;}.cls-2{fill:#e06700;}.cls-12,.cls-3{fill:none;stroke-linecap:round;stroke-linejoin:round;}.cls-3{stroke:#9d4500;stroke-width:1.6px;}.cls-4{fill:#85881b;}.cls-5{fill:#ffcf57;}.cls-6{fill:#f5dcc9;}.cls-7{fill:#d1b9b2;}.cls-8{fill:#be9d94;}.cls-9{fill:#be0036;}.cls-10{fill:#f3d4bd;}.cls-11{fill:#c46b2c;}.cls-12{stroke:#dbaa32;stroke-width:1.55px;}</style></defs><title>四季svg</title><path class="cls-1" d="M91.1,110.9l-12,17.7a161.1,161.1,0,0,0-11.2-19.8v73.5H46.9v-68q-11.4,26.6-22.5,40-2.1-7.1-10.9-22,14.8-16.4,27-45Q41.5,85,42.2,83H17.9v-20H46.9V40.9q-10.9,2-23.2,3.4-1.3-6.4-5.9-16.6Q56,21.6,78.1,12.5L91.8,29.9a216.8,216.8,0,0,1-23.9,6.8V63.1H90.6V83H67.9v2.3q8.7,8.4,20.9,22.7Z"/><path class="cls-1" d="M164.3,51.6l21.4,4.8q-10.9,30.9-19.6,48.7L147.9,100a220,220,0,0,0,16.2-47.7A3,3,0,0,0,164.3,51.6Z"/><path class="cls-2" d="M30.1,84c2.2-3.2,2.6-6.1-1.2-12.7a14.1,14.1,0,0,0-6.3,10.2c-2.4-4.7-8.4-10.2-13.1-10.2-2,4.3.3,12,3.5,16.2A14.1,14.1,0,0,0,1.1,88.9c4.2,6.3,7,7.3,10.9,6.6-3.6,2.2-4.5,6.8-4.8,10.2,12.8-.6,17.1-10.8,17.1-10.8s11,.5,17.1-10.8C38.1,83,33.7,81.8,30.1,84Z"/><path class="cls-3" d="M20.1,88.3s.9,3.2,5.2,10.1,9.9,7.1,9.9,7.1"/><path class="cls-1" d="M106.5,106.4,87.7,98.9q8.6-13.7,10.7-42.1.2-2.7.4-5l18.7,2.3Q116.8,87.2,106.5,106.4Z"/><path class="cls-4" d="M129.1,141.5l-1.9-3.6,1.2-1.3a15.3,15.3,0,0,0,3.2-6.2,12.2,12.2,0,0,0,.3-1.9c0-.6,0-1.2,0-1.9a18.2,18.2,0,0,0-.4-3.3,24.1,24.1,0,0,0-.7-2.4l-.3-.9a14.6,14.6,0,0,0-2.5,2,12.8,12.8,0,0,0-3.5,6,11.7,11.7,0,0,0-.3,3.4q-1.7-3.9-3.3-8.1l1.3-1.2a14.5,14.5,0,0,0,3.7-5.9,15.9,15.9,0,0,0,.5-7.2,18.5,18.5,0,0,0-.7-3.4,14.4,14.4,0,0,0-2.7,1.8,14.8,14.8,0,0,0-2.2,2.3l-1,1.5a11.3,11.3,0,0,0-.8,1.8,13.3,13.3,0,0,0-.6,3.4l-1.8-5.5-.8-2.8,1.4-1.1a15.1,15.1,0,0,0,4.2-5.6,13.8,13.8,0,0,0,.9-3.7c.1-.6.1-1.2.1-1.8s0-1.1,0-1.6a18.6,18.6,0,0,0-.5-3.5,14.4,14.4,0,0,0-2.8,1.6,13.4,13.4,0,0,0-4.4,5.4,13.1,13.1,0,0,0-.8,3.3l-.7-2.8-.9-3.8H112l.4-1.4a18.7,18.7,0,0,0,.3-7.5,18.1,18.1,0,0,0-1.3-3.8,19.6,19.6,0,0,0-1.8-3,19.3,19.3,0,0,0-2.3-2.7,17.8,17.8,0,0,0-1.3,3.3,19.6,19.6,0,0,0-.7,3.5,13.7,13.7,0,0,0,.2,4.1,16.2,16.2,0,0,0,3.3,6.9l1,1.1h-.3l.9,4.1.7,2.6a14.8,14.8,0,0,0-2.4-2.6,14.4,14.4,0,0,0-6.4-3.1,14.7,14.7,0,0,0-3.3-.4,22.6,22.6,0,0,0,1.2,3.7l.7,1.6,1,1.7a14.7,14.7,0,0,0,2.7,3.1,12.9,12.9,0,0,0,6.5,2.8l1.8.2,1.6,5.2,1.1,3.2a14.6,14.6,0,0,0-2.5-2.4l-1.7-1.1-1.7-.8a16.1,16.1,0,0,0-3.2-.8,14.7,14.7,0,0,0-3.3-.2,22.7,22.7,0,0,0,1.4,3.6,17.7,17.7,0,0,0,4.9,6.1,13.3,13.3,0,0,0,6.8,2.3h1.8q1.6,4.2,3.4,8.3a16.9,16.9,0,0,0-2.8-2.2,15.1,15.1,0,0,0-6.8-2.1,14.6,14.6,0,0,0-3.3.1l.4,1a23.5,23.5,0,0,0,3.6,5.5l1.5,1.4,1.7,1.2a12.8,12.8,0,0,0,6.9,1.7l1.8-.2,1.6,3.2Z"/><path class="cls-1" d="M126.7,12h20.2q-.4,52.3-2.1,72.1,9.6,56.4,37.5,76.4a67.8,67.8,0,0,0,6.8,4.1,57.9,57.9,0,0,0-13,15.9l-.5,1.1q-26.2-17-38.6-53.7-11.6,35.5-41.9,54.6a56.1,56.1,0,0,0-13-15.5l-1.1-.7q28.2-16.6,38-48.7,7.1-23.6,7.7-71.4Q126.6,41.5,126.7,12Z"/><path class="cls-5" d="M186,34.7a90,90,0,0,0-1.1-8.9.5.5,0,0,0-.6-.4l-4.6,1.1,2.2-4.2a.5.5,0,0,0-.2-.7c-1.7-.8-6.8-2.7-8.4-3.2s-2.2,1.7-2.2,1.7l-.7,12.7a1.2,1.2,0,0,0,1,1.3l12.5,2.3S186,36.7,186,34.7Z"/><path class="cls-6" d="M32.2,161.8H43.5a0,0,0,0,1,0,0v15a5.6,5.6,0,0,1-5.6,5.6h0a5.6,5.6,0,0,1-5.6-5.6v-15A0,0,0,0,1,32.2,161.8Z"/><path class="cls-7" d="M40.9,172.6a34.9,34.9,0,0,1,61.6-7.2H104a17.7,17.7,0,0,1,17.7,17.1H27.1A17.7,17.7,0,0,1,40.9,172.6Z"/><circle class="cls-8" cx="82.8" cy="165" r="2.5"/><circle class="cls-8" cx="57.4" cy="165" r="2.5"/><circle class="cls-8" cx="70.6" cy="174.5" r="2.5"/><circle class="cls-8" cx="98" cy="174.5" r="2.5"/><path class="cls-9" d="M18.8,161.8a19.1,19.1,0,0,1,38.2,0Z"/><circle class="cls-10" cx="39.8" cy="153.4" r="4.9"/><circle class="cls-10" cx="28.3" cy="157.3" r="1.9"/><path class="cls-10" d="M51.7,152.2a4,4,0,0,0,4,4h.5a19.1,19.1,0,0,0-3.5-6.5A3.9,3.9,0,0,0,51.7,152.2Z"/><path class="cls-10" d="M23.5,149.2a4,4,0,1,0,6.3-4.7A19.2,19.2,0,0,0,23.5,149.2Z"/><path class="cls-11" d="M164.5,133.3c-4.1,5.7-11,7.7-11,7.7s-.2-7.2,3.9-12.8,11-7.7,11-7.7S168.7,127.6,164.5,133.3Z"/><path class="cls-11" d="M130.4,147.5a17.3,17.3,0,0,1,1.4,9.9,15.3,15.3,0,0,1-8.5-16.8A17.3,17.3,0,0,1,130.4,147.5Z"/><path class="cls-11" d="M146.7,174.1c-3.1,3.4-8,3.9-8,3.9s.1-4.9,3.2-8.3,8-3.9,8-3.9S149.8,170.8,146.7,174.1Z"/><path class="cls-12" d="M174.2,30.6a16,16,0,0,0-9,8.5"/></svg>