<svg id="圖層_1" data-name="圖層 1" xmlns="http://www.w3.org/2000/svg" viewBox="0 0 170.1 226.8"><defs><style>.cls-1{fill:#b3751e;}.cls-2{fill:#5bb431;}.cls-3{fill:#f6aa00;}.cls-4{fill:#75bc53;}.cls-5{fill:#f6ab00;}.cls-6{fill:#e5fff0;}.cls-7{fill:none;}.cls-8{fill:#7fbe26;}</style></defs><title>gjuji-logo-big</title><path class="cls-1" d="M116.5,37.8a1.7,1.7,0,0,1-1.7-1.7V29.4a1.7,1.7,0,1,1,3.4,0v6.7A1.7,1.7,0,0,1,116.5,37.8Z"/><path class="cls-1" d="M118.2,38.7a58.2,58.2,0,0,1,8.4.6,4,4,0,0,0,.1-.7,3.7,3.7,0,0,0-3.5-3.9,3.4,3.4,0,0,0-2.8,1.5,2.5,2.5,0,0,0-1.6-.6,2.6,2.6,0,0,0-2.2,1.2,2.6,2.6,0,0,0-2.2-1.2,2.5,2.5,0,0,0-1.6.6,3.4,3.4,0,0,0-2.8-1.5,3.7,3.7,0,0,0-3.5,3.9,4.1,4.1,0,0,0,.2,1.2A57.7,57.7,0,0,1,118.2,38.7Z"/><path class="cls-1" d="M43.6,179.2a.5.5,0,0,0,.8-.1,11.6,11.6,0,0,0,.4-8.5c-.9-2.3-3.5-5.4-6.3-5.7v-2.1h3.7c1.6,0,2.6-.4,2.9-1.9l.4-3a.6.6,0,0,0-.6-.7H38.5v-7.2c0-2.6-.6-4.3-3.2-4.7l-5-.6a.9.9,0,0,0-1.1.9v11.6H25.5c-1.6,0-2.6.4-2.9,1.9l-.4,3a.6.6,0,0,0,.6.7h6.4v30.4c0,2.6.6,4.3,3.2,4.7l5,.6a.9.9,0,0,0,1.1-.9V174.9A9,9,0,0,1,43.6,179.2Z"/><path class="cls-1" d="M47,170.1H74c1.9,0,3.1-.4,3.5-2.3l.5-3.7a.7.7,0,0,0-.7-.8H65.6v-4.9h6.2c1.4,0,2.3-.3,2.6-1.7l.3-2.7a.5.5,0,0,0-.5-.6H65.6v-3.1c0-2.6-.6-4.4-3.3-4.9l-5.2-.6a.9.9,0,0,0-1.1.9v7.7H52.2c-1.4,0-2.3.3-2.6,1.7l-.3,2.7a.5.5,0,0,0,.5.6H56v4.9H50.2c-1.9,0-3.1.4-3.5,2.3l-.5,3.7A.7.7,0,0,0,47,170.1Z"/><path class="cls-1" d="M78,192H65.6v-6.4h5c1.4,0,2.3-.3,2.6-1.7l.3-2.7a.5.5,0,0,0-.5-.6H65.6v-2.9c0-2.6-.6-4.4-3.3-4.9l-5.2-.6a.9.9,0,0,0-1.1.9v7.4h-5c-1.4,0-2.3.3-2.6,1.7l-.3,2.7a.5.5,0,0,0,.5.6H56v5.8c0,.2,0,.4,0,.6h-9c-1.9,0-3.1.4-3.5,2.3l-.5,3.7a.7.7,0,0,0,.7.8H74.7c1.9,0,3.1-.4,3.5-2.3l.5-3.7A.7.7,0,0,0,78,192Z"/><path class="cls-2" d="M25.2,189.2a13.5,13.5,0,0,1,5.4-8.8c3.8-2.8,6.3-10.7.3-13.7s-11.5,5.7-11.6,10.9A17.4,17.4,0,0,0,24,189.5.7.7,0,0,0,25.2,189.2Z"/><path class="cls-2" d="M121.3,162.1l15.1,9h0l.5.3h0a9.8,9.8,0,0,0,5.4.8,10.8,10.8,0,0,0,6.7-4.3.5.5,0,0,0-.3-.7,8.8,8.8,0,0,1-3.9-.8l-6.1-3h0l-8.7-5.5Z"/><path class="cls-1" d="M108.8,171h0Z"/><path class="cls-1" d="M150.3,182.2h-17l5.3-3.7h0a2,2,0,0,0,1-1.6l.4-3a.6.6,0,0,0-.6-.7H106.9c-1.6,0-2.6.4-2.9,1.9l-.4,3a.6.6,0,0,0,.6.7h19l-4.8,3.3H97.3c-1.6,0-2.6.4-2.9,1.9l-.4,3a.6.6,0,0,0,.6.7H116v10.8h5.3a5.3,5.3,0,0,0,5.3-5.3v-5.4h20.9c1.6,0,2.6-.4,2.9-1.9l.4-3A.6.6,0,0,0,150.3,182.2Z"/><path class="cls-1" d="M94.6,162.8h11.2l-6.2,3.5a11.3,11.3,0,0,1-4,.8.5.5,0,0,0-.3.7,10.8,10.8,0,0,0,6.7,4.4,9.8,9.8,0,0,0,5.4-.8h0l.5-.3h0l9.4-5.6v.6c0,2.6.6,4.4,3.3,4.9l5.2.6a.9.9,0,0,0,1.1-.9v-7.8h20.2c1.6,0,2.6-.4,2.9-1.9l.4-3a.6.6,0,0,0-.6-.7H127v-3.4l10.1-1.2a.7.7,0,0,0,.6-.7l-.4-3.4a4.1,4.1,0,0,0-4.3-3.6l-26,2.9a11.4,11.4,0,0,1-4-.9c-.3-.1-.6.2-.5.5a11.6,11.6,0,0,0,1.4,3.5,9.2,9.2,0,0,0,8.3,4.7l5.2-.6v2.3H97.3c-1.6,0-2.6.4-2.9,1.9l-.4,3A.6.6,0,0,0,94.6,162.8Z"/><path class="cls-2" d="M108.1,191.2a9.3,9.3,0,0,0,7-.9c2.8-1.6,8.5-.9,8.7,3.6s-6.8,5.6-10.1,4.2a12,12,0,0,1-6.1-6.3C107.5,191.6,107.7,191.2,108.1,191.2Z"/><path class="cls-1" d="M48.1,16.2h-.5a1.7,1.7,0,0,1-1.1-2.1L50.4,1.2a1.7,1.7,0,0,1,3.3,1L49.8,14.9A1.7,1.7,0,0,1,48.1,16.2Z"/><path class="cls-3" d="M5.4,30.2A8.3,8.3,0,0,1,.3,35.3a.5.5,0,0,0,0,.9,8.3,8.3,0,0,1,5.1,5.1.5.5,0,0,0,.9,0,8.3,8.3,0,0,1,5.1-5.1.5.5,0,0,0,0-.9,8.3,8.3,0,0,1-5.1-5.1A.5.5,0,0,0,5.4,30.2Z"/><path class="cls-4" d="M163.7,113.3a8.3,8.3,0,0,1-5.1,5.1.5.5,0,0,0,0,.9,8.3,8.3,0,0,1,5.1,5.1.5.5,0,0,0,.9,0,8.3,8.3,0,0,1,5.1-5.1.5.5,0,0,0,0-.9,8.3,8.3,0,0,1-5.1-5.1A.5.5,0,0,0,163.7,113.3Z"/><path class="cls-5" d="M143.4,44.6a16.9,16.9,0,0,1-13,5.9,14.6,14.6,0,0,1-8.4-2.4,10.9,10.9,0,0,1-4.6-8,9.8,9.8,0,0,1,0-1.4c-13.2.2-25,4.7-33.6,12l.9,1.7,2.4,3.9c7.1,11.4,12.8,20.4,12.8,35.7a38.6,38.6,0,0,1-6,21.5,55.7,55.7,0,0,0,24.3,5.5c26.7,0,48.3-18,48.3-40.1C166.5,64.3,157.3,51.7,143.4,44.6Z"/><path class="cls-6" d="M136.9,64c-3.1,3.5-6.9,3.3-10.2,2.6l-2.5-.8-1.2.6a12.7,12.7,0,0,1-5.2,1.2,9.4,9.4,0,0,1-6.8-2.9c-1.8-1.7-1.8-4.4-1.8-5.6a1.6,1.6,0,1,1,3.2,0c0,.7,0,2.5.8,3.3s4.7,2.5,8,1.2a5.2,5.2,0,0,1-1.2-3.2,5.1,5.1,0,0,1,3.3-4.9,3.6,3.6,0,0,1,4.7,2.7,6.1,6.1,0,0,1-1.1,5.1h.4c3.6.8,5.4.3,7.1-1.6a6.5,6.5,0,0,0,1.4-3.5,1.6,1.6,0,0,1,1.8-1.4,1.6,1.6,0,0,1,1.4,1.8A9.6,9.6,0,0,1,136.9,64Z"/><path class="cls-3" d="M124.7,58.6h-.4a1.9,1.9,0,0,0-1,1.7,2.2,2.2,0,0,0,.7,1.5,3.2,3.2,0,0,0,1-2.9Z"/><path class="cls-7" d="M37,40.5h4.1a1.7,1.7,0,0,1,0,3.4H37a1.7,1.7,0,1,1,0-3.4Z"/><path class="cls-8" d="M81.8,54.1c-3.7-5.9-4.8-14.9-6.9-21.2C69.7,17,62.2,12,56.4,9.9c-2.5-.9-6.2.4-7.3,1.4-1.1-1-4.8-2.3-7.3-1.4C36,12,28.6,17,23.3,32.9c-2.1,6.3-3.2,15.3-6.9,21.2C8.2,67.5,1.7,75.9,1.7,91.9c0,25.8,20.7,36.9,46.5,37.4H50c25.8-.5,46.5-11.6,46.5-37.4C96.5,75.9,90.1,67.5,81.8,54.1Z"/><path class="cls-6" d="M46.5,61.1h5.2a1.7,1.7,0,0,0,0-3.4H46.5a1.7,1.7,0,1,0,0,3.4Z"/><path class="cls-6" d="M37,43.9h4.1a1.7,1.7,0,0,0,0-3.4H37a1.7,1.7,0,1,0,0,3.4Z"/><path class="cls-6" d="M49.1,54c1.6,0,4-.7,4-3.4s-2.4-2.5-4-2.5-4-.3-4,2.5S47.5,54,49.1,54Z"/><path class="cls-6" d="M57.1,43.9h4.1a1.7,1.7,0,0,0,0-3.4H57.1a1.7,1.7,0,1,0,0,3.4Z"/><path class="cls-8" d="M119,39.9c-1-9.1,12.4-12.1,17.9-6.2,2.8,3,7.1,3.1,9,2.8a.8.8,0,0,1,.8,1.1c-1.6,2.9-5.8,9.3-12.3,10.9S119.9,48.2,119,39.9Z"/><path class="cls-1" d="M63,213.3s1.2.7,1.7.1,1.8-1.7-.4-2.5a6.2,6.2,0,0,0-5.7.6c-1.1.9-1.6,2.5-1.6,5.8s1.7,5.8,3.7,5.8,2.3-.3,2.8-.8a2.3,2.3,0,0,0,1.5.7,1,1,0,0,0,1.1-1v-5.3a.8.8,0,0,0-.8-.7H63.1c-.3,0-1.1,0-1.1.6s-.1.8-.1,1,.2.9.7.9.5.1.5.4v1c0,.2.1.6-.4.6s-2.3.4-2.3-2.3a15,15,0,0,1,.1-3.4C60.8,214,61,212.9,63,213.3Z"/><path class="cls-1" d="M70.1,214.8V221a2.3,2.3,0,0,0,2.2,2.2c1.7,0,1.6-.1,2.6-.9a1.9,1.9,0,0,0,1.6.8c.7,0,1.1-.4,1.1-1.3V215c0-.5-.3-1.1-1-1.1h-1a.9.9,0,0,0-.9,1v5.6a1.3,1.3,0,0,1-1,.4c-.7,0-.7-.6-.7-.9v-5.1a1,1,0,0,0-1-1h-1S70.1,213.9,70.1,214.8Z"/><path class="cls-1" d="M82.2,213.9h1.7a1,1,0,0,1,1,1v7a.9.9,0,0,1-1,1H82.8a1,1,0,0,1-.8-.9v-5.8a1.5,1.5,0,0,1-.8-1.3A1,1,0,0,1,82.2,213.9Z"/><circle class="cls-1" cx="83.2" cy="211.5" r="1.7"/><path class="cls-1" d="M107.6,214.5h1.7a1,1,0,0,1,1,1v7a.9.9,0,0,1-1,1h-1.1a1,1,0,0,1-.8-.9v-5.8a1.5,1.5,0,0,1-.8-1.3A1,1,0,0,1,107.6,214.5Z"/><circle class="cls-1" cx="108.5" cy="212.1" r="1.7"/><path class="cls-1" d="M98.6,226c.9,1.4,1.7.6,2.8-.3a3.9,3.9,0,0,0,1.1-2.7v-11a.7.7,0,0,0-.7-.7h-1.6c-.5,0-.7.7-.7.7v10.3a3.1,3.1,0,0,1-.7,1.6A1.5,1.5,0,0,0,98.6,226Z"/><path class="cls-1" d="M150.3,218.8H117a.5.5,0,0,1,0-1h33.4a.5.5,0,0,1,0,1Z"/><path class="cls-1" d="M50.4,218.8H22.8a.5.5,0,0,1,0-1H50.4a.5.5,0,0,1,0,1Z"/><path class="cls-6" d="M128.8,83.2c-1.5,2.2-3.3,3.1-6.2,3.1s-4.8-.9-6.2-3.1a1.6,1.6,0,1,1,2.7-1.8c.7,1.1,1.5,1.7,3.6,1.7s2.8-.6,3.6-1.7a1.6,1.6,0,1,1,2.7,1.8Z"/><path class="cls-6" d="M120.9,77.5V74.6a1.6,1.6,0,0,1,3.2,0v2.9a1.6,1.6,0,0,1-3.2,0Z"/><circle class="cls-6" cx="114.1" cy="75.4" r="2.3"/><circle class="cls-6" cx="131" cy="75.4" r="2.3"/><circle class="cls-6" cx="39.1" cy="50.4" r="2.5"/><circle class="cls-6" cx="59.1" cy="50.4" r="2.5"/></svg>