<?xml version="1.0" encoding="utf-8"?>
<!-- Generator: Adobe Illustrator 21.1.0, SVG Export Plug-In . SVG Version: 6.00 Build 0)  -->
<svg version="1.1" id="圖層_1" xmlns="http://www.w3.org/2000/svg" xmlns:xlink="http://www.w3.org/1999/xlink" x="0px" y="0px"
	 viewBox="0 0 226.8 70.9" style="enable-background:new 0 0 226.8 70.9;" xml:space="preserve">
<style type="text/css">
	.st0{fill:#B3751E;}
	.st1{fill:#73C300;}
	.st2{fill:#FFB400;}
	.st3{fill:none;stroke:#F6AA00;stroke-width:2.8503;stroke-linecap:round;stroke-linejoin:round;stroke-miterlimit:10;}
	.st4{fill:none;stroke:#7FBE26;stroke-width:2.8503;stroke-linecap:round;stroke-linejoin:round;stroke-miterlimit:10;}
</style>
<g>
	<g>
		<g>
			<path class="st0" d="M125.4,42.9c0.2,0.3,0.7,0.2,0.8-0.1c0.6-1.3,1.8-4.8,0.4-8.5c-0.9-2.3-3.6-5.5-6.4-5.7v-2.1h3.7
				c1.6,0,2.6-0.4,2.9-1.9l0.4-3.1c0.1-0.4-0.2-0.7-0.6-0.7h-6.4v-7.2c0-2.6-0.6-4.3-3.2-4.7l-5-0.6c-0.6-0.1-1.1,0.3-1.1,0.9v11.6
				h-3.7c-1.6,0-2.6,0.4-2.9,1.9l-0.4,3.1c-0.1,0.4,0.2,0.7,0.6,0.7h6.4v30.6c0,2.6,0.6,4.3,3.2,4.7l5,0.6c0.6,0.1,1.1-0.3,1.1-0.9
				v-23C123.4,39.6,124.9,41.9,125.4,42.9z"/>
			<path class="st0" d="M128.8,33.7H156c1.9,0,3.1-0.4,3.5-2.3l0.5-3.7c0.1-0.5-0.2-0.8-0.7-0.8h-11.7v-5h6.3c1.4,0,2.3-0.3,2.6-1.7
				l0.3-2.7c0.1-0.3-0.2-0.6-0.5-0.6h-8.7v-3.1c0-2.7-0.6-4.4-3.3-4.9l-5.2-0.6c-0.6-0.1-1.1,0.3-1.1,0.9v7.7h-3.9
				c-1.4,0-2.3,0.3-2.6,1.7l-0.3,2.7c-0.1,0.3,0.2,0.6,0.5,0.6h6.3v5h-5.9c-1.9,0-3.1,0.4-3.5,2.3l-0.5,3.7
				C128.1,33.4,128.4,33.7,128.8,33.7z"/>
			<path class="st0" d="M160,55.7h-12.4v-6.4h5c1.4,0,2.3-0.3,2.6-1.7l0.3-2.7c0.1-0.3-0.2-0.6-0.5-0.6h-7.4v-2.9
				c0-2.7-0.6-4.4-3.3-4.9l-5.2-0.6c-0.6-0.1-1.1,0.3-1.1,0.9v7.5h-5c-1.4,0-2.3,0.3-2.6,1.7l-0.3,2.7c-0.1,0.3,0.2,0.6,0.5,0.6h7.4
				v5.9c0,0.2,0,0.4,0,0.6h-9.1c-1.9,0-3.1,0.4-3.5,2.3l-0.5,3.7c-0.1,0.5,0.2,0.8,0.7,0.8h31.1c1.9,0,3.1-0.4,3.5-2.3l0.5-3.7
				C160.8,56.1,160.5,55.7,160,55.7z"/>
			<path class="st1" d="M106.9,53c0.3-1.8,1.3-5.8,5.4-8.9c3.8-2.8,6.3-10.8,0.3-13.8c-7.1-3.6-11.6,5.7-11.7,11
				c-0.1,6,3.4,10.4,4.8,11.9C106.1,53.5,106.8,53.5,106.9,53z"/>
		</g>
		<g>
			<path class="st1" d="M195.4,25.6l15.2,9l0,0l0.5,0.3l0,0c1.8,0.8,3.9,1,5.5,0.8c3.7-0.6,5.9-3.3,6.7-4.4c0.1-0.2,0-0.6-0.3-0.7
				c-0.8,0-2.3,0-4-0.8l-6.2-3l0,0l-8.8-5.6L195.4,25.6z"/>
			<path class="st0" d="M182.8,34.6C182.8,34.7,182.7,34.7,182.8,34.6L182.8,34.6L182.8,34.6z"/>
			<path class="st0" d="M224.5,45.9h-17.1l5.3-3.7l0,0c0.5-0.3,0.9-0.8,1-1.6l0.4-3.1c0.1-0.4-0.2-0.7-0.6-0.7h-32.6
				c-1.6,0-2.6,0.4-2.9,1.9l-0.4,3.1c-0.1,0.4,0.2,0.7,0.6,0.7h19.2l-4.8,3.3h-21.3c-1.6,0-2.6,0.4-2.9,1.9l-0.4,3.1
				c-0.1,0.4,0.2,0.7,0.6,0.7h21.5v10.8h5.4c3,0,5.3-2.4,5.3-5.3v-5.5h21c1.6,0,2.6-0.4,2.9-1.9l0.4-3.1
				C225.1,46.2,224.9,45.9,224.5,45.9z"/>
			<path class="st0" d="M168.5,26.3h11.2c-2.8,1.6-5.4,3.1-6.2,3.5c-1.2,0.6-3.2,0.8-4,0.8c-0.4,0-0.4,0.5-0.3,0.7
				c0.8,1.1,3,3.7,6.7,4.4c1.5,0.3,3.7,0,5.5-0.8l0,0l0.5-0.3l0,0l9.5-5.6v0.6c0,2.7,0.6,4.4,3.3,4.9l5.2,0.6
				c0.6,0.1,1.1-0.3,1.1-0.9v-7.9h20.3c1.6,0,2.6-0.4,2.9-1.9l0.4-3.1c0.1-0.4-0.2-0.7-0.6-0.7h-23v-3.4c4.5-0.5,8.6-1,10.2-1.2
				c0.4,0,0.6-0.4,0.6-0.8c-0.1-1-0.3-2.3-0.4-3.5c-0.3-2.2-2.1-3.7-4.3-3.6C207,8.1,182.2,11,181,11c-1.3,0-3.3-0.5-4-0.9
				c-0.3-0.1-0.6,0.2-0.6,0.5c0.1,0.7,0.5,2.1,1.4,3.5c0.7,1.1,1.6,2.3,3,3.2c1.3,0.9,3.4,1.5,5.3,1.5c0.1,0,2.3-0.2,5.3-0.6v2.3
				h-20.3c-1.6,0-2.6,0.4-2.9,1.9l-0.4,3.1C167.9,26,168.2,26.3,168.5,26.3z"/>
			<path class="st1" d="M182,54.9c1.2,0.3,4,0.8,7.1-0.9c2.8-1.6,8.5-1,8.7,3.7c0.2,5.5-6.8,5.7-10.2,4.3c-3.8-1.6-5.6-5-6.1-6.4
				C181.4,55.3,181.6,54.9,182,54.9z"/>
		</g>
	</g>
	<path class="st0" d="M29.9,10c-0.9,0-1.7-0.7-1.7-1.7V1.5c0-0.9,0.7-1.7,1.7-1.7s1.7,0.7,1.7,1.7v6.8C31.6,9.2,30.9,10,29.9,10z"/>
	<g>
		<path class="st1" d="M2.3,51c0-8.6,3.8-13.1,8.6-20.3c2.1-3.2,2.8-8,4-11.4C18,10.8,22.2,7.8,25.7,7C27,6.7,29.3,7.8,30,8.4
			c0.6-0.5,2.4-1.8,4.3-1.4c3.4,0.8,7.7,3.8,10.8,12.3c1.2,3.4,1.9,8.2,4,11.4c4.8,7.2,8.6,11.7,8.6,20.3c0,13.8-12,19.8-27.1,20.1
			l0,0c-0.2,0-0.3,0-0.5,0s-0.3,0-0.5,0l0,0C14.4,70.8,2.3,64.8,2.3,51z"/>
	</g>
	<path class="st2" d="M59.8,23.3c-3.7,0-7.3,0.6-10.5,1.8c0.6,2,1.3,4,2.3,5.6c4.8,7.2,8.6,11.7,8.6,20.3c0,7.4-3.4,12.5-8.9,15.8
		c2.7,0.7,5.5,1.1,8.5,1.1c14.8,0,26.8-10,26.8-22.3C86.6,33.3,74.6,23.3,59.8,23.3z"/>
	<g>
		<line class="st3" x1="1.7" y1="17.9" x2="8.4" y2="17.9"/>
		<line class="st3" x1="5.1" y1="14.6" x2="5.1" y2="21.3"/>
	</g>
	<g>
		<line class="st4" x1="82.1" y1="66.6" x2="88.8" y2="66.6"/>
		<line class="st4" x1="85.4" y1="63.2" x2="85.4" y2="69.9"/>
	</g>
	<path class="st1" d="M58.9,24.2c0-8.7,13.1-10.2,17.6-4c2.3,3.1,6.4,3.7,8.3,3.6c0.6,0,0.9,0.7,0.6,1.1c-1.8,2.6-6.5,8.1-12.8,9
		C66.7,34.7,58.9,32.1,58.9,24.2z"/>
	<path class="st0" d="M59.8,29.4c-0.9,0-1.7-0.7-1.7-1.7v-6.5c0-0.9,0.7-1.7,1.7-1.7s1.7,0.7,1.7,1.7v6.5
		C61.5,28.6,60.8,29.4,59.8,29.4z"/>
</g>
</svg>
