<svg id="圖層_1" data-name="圖層 1" xmlns="http://www.w3.org/2000/svg" viewBox="0 0 190 185"><defs><style>.cls-1{fill:#39881f;}.cls-10,.cls-11,.cls-2,.cls-3,.cls-5,.cls-6{fill:none;stroke:#fff;stroke-linecap:round;stroke-linejoin:round;}.cls-2{stroke-width:0.26px;}.cls-3{stroke-width:0.18px;}.cls-4{fill:#77af4a;}.cls-5{stroke-width:0.35px;}.cls-6{stroke-width:0.23px;}.cls-7{fill:#fabcb7;}.cls-8{fill:#8cc120;}.cls-9{fill:#2a797e;}.cls-10{stroke-width:0.49px;}.cls-11{stroke-width:0.33px;}.cls-12{fill:#9edda8;}.cls-13{fill:#00a53b;}.cls-14{fill:#ee90ad;}.cls-15{fill:#e76092;}.cls-16{fill:#fff;}.cls-17{fill:#804e20;}.cls-18{fill:#6a3806;}</style></defs><title>四季svg</title><path class="cls-1" d="M120.5,32.3c.3.6.9.5,1-.2a30.7,30.7,0,0,1,3.3-10.5,11.9,11.9,0,0,0,1.1-2.8,5.4,5.4,0,0,0-.4-3.4,1.8,1.8,0,0,0-1.8-1.1,2,2,0,0,0-1.1,1.9c0-1.6.2-3.1.3-4.7a8.9,8.9,0,0,0-.9-4.7,2.1,2.1,0,0,0-1.1-1c-.6-.2-1.1.3-1.4,1.1a9.1,9.1,0,0,0-.4,2.5,16,16,0,0,0-1.5-7C116.6.7,115.9-.1,115,0s-1.3,1.2-1.4,2.9a16,16,0,0,0,1.1,7,9.3,9.3,0,0,0-1.3-2.2c-.5-.6-1.2-.9-1.7-.5a2.1,2.1,0,0,0-.6,1.3,8.9,8.9,0,0,0,.8,4.7c.6,1.5,1.4,2.8,1.9,4.3a2,2,0,0,0-1.7-1.4c-.6,0-1.2.7-1.3,1.7a5.4,5.4,0,0,0,.8,3.3,12.2,12.2,0,0,0,2,2.3A31.5,31.5,0,0,1,120.5,32.3Z"/><line class="cls-2" x1="117" y1="10.8" x2="121.1" y2="32.7"/><path class="cls-3" d="M119.7,13.7s-.3,3.1-1.4,3.6-2.6-2.9-2.6-2.9"/><path class="cls-3" d="M120.9,19.7a6.2,6.2,0,0,1-1.9,2.1c-1,0-2.5-1.4-2.5-1.4"/><path class="cls-4" d="M122,28.1a.9.9,0,0,0,1.2,1c3.8-2,8.8-2.3,13.1-2.4a13.2,13.2,0,0,0,3.8-.4,3.8,3.8,0,0,0,2.6-2.5,2.7,2.7,0,0,0-4-3c1.4-1,3.1-1.6,4.5-2.5a6.1,6.1,0,0,0,3.1-3.9,2.7,2.7,0,0,0-.3-1.9,2.7,2.7,0,0,0-2.5-1,8,8,0,0,0-2.7.9,10.9,10.9,0,0,0,4.6-5.9c.6-1.8.4-3.2-.6-4.1s-2.5-.8-4.2.1a10.9,10.9,0,0,0-5,5.5,8,8,0,0,0,.5-2.8,2.7,2.7,0,0,0-1.5-2.3,2.7,2.7,0,0,0-1.9,0,6.1,6.1,0,0,0-3.4,3.8c-.6,1.6-1,3.3-1.7,4.9A2.7,2.7,0,0,0,124.1,8a3.8,3.8,0,0,0-2.1,3,13.2,13.2,0,0,0,.2,3.8C122.8,19,123.3,24,122,28.1Z"/><line class="cls-5" x1="137.4" y1="11.2" x2="122.3" y2="29"/><path class="cls-6" d="M137.7,16s-3.1,1.5-4.8.5-.4-4.9-.4-4.9"/><path class="cls-6" d="M133.8,21.1a10.6,10.6,0,0,1-4-.9,9.4,9.4,0,0,1-1.6-3.8"/><path class="cls-7" d="M65.4,68.4H27.9V51.2H71.8q.5-1.8,2.3-8.9H21.8V24.8H77.3q.5-4.8,1.2-12.7l22.3,1.6Q100,22,99.6,24.8h68V42.3H96.4l-1.1,4.5-1.1,4.5h67.3V68.4H65.4Z"/><path class="cls-8" d="M169.7,39.3a6.7,6.7,0,0,0-2.8,1.7,6.9,6.9,0,0,0-1,1.3l.2-1.2.2-1.9h-.1l.4-.6a7.5,7.5,0,0,0,1.2-3.4,6.3,6.3,0,0,0-.1-1.9,9.1,9.1,0,0,0-.5-1.6,8.2,8.2,0,0,0-.8-1.5,8.9,8.9,0,0,0-.9,1.4,9.1,9.1,0,0,0-.7,1.5,8.4,8.4,0,0,0-.4,1.8,8.7,8.7,0,0,0,.5,3.4l.2.6h-.1l-.2,1.8-.2,1.3a6.1,6.1,0,0,0-.6-1.5,6.2,6.2,0,0,0-2.3-2.3,6.7,6.7,0,0,0-1.4-.6,8.6,8.6,0,0,0,0,1.6c0,.2,0,.5.1.8V41a6.4,6.4,0,0,0,.6,1.7,7,7,0,0,0,2.2,2.4l.7.4-.2,1.3-.6,2.6a6.2,6.2,0,0,0-.5-1.5l-.4-.8-.5-.7-1.2-1a6.7,6.7,0,0,0-1.3-.7,8.6,8.6,0,0,0-.1,1.6,7.4,7.4,0,0,0,.6,3.3,6.7,6.7,0,0,0,2,2.5l.7.5q-.5,2-1.1,3.9a5.4,5.4,0,0,0-.3-1.5,6,6,0,0,0-1.9-2.6,6.8,6.8,0,0,0-1.3-.8v.4a11.2,11.2,0,0,0-.2,1.1,8.5,8.5,0,0,0,0,1.6c0,.3.1.6.1.9l.2.9a7.1,7.1,0,0,0,1.8,2.7l.6.5-.7,1.8-.4.9-.2.5-.2.5a6.2,6.2,0,0,0-.2-1.6,5,5,0,0,0-.7-1.6l-1-1.2a6.6,6.6,0,0,0-1.2-.9,8.2,8.2,0,0,0-.4,1.5,9.8,9.8,0,0,0-.2,1.5,6.8,6.8,0,0,0,.2,1.7,6.9,6.9,0,0,0,1.5,2.8l.6.6v.2l-1.2,2.2-.6,1.1a5.7,5.7,0,0,0,0-1.6,5.9,5.9,0,0,0-1.3-2.9,6.5,6.5,0,0,0-1.1-1,7.8,7.8,0,0,0-.6,1.4l-.2.7-.2.8a6.2,6.2,0,0,0,0,1.7,7.1,7.1,0,0,0,1.1,3l.5.7-.3.4-.5.7L151.4,76h-.1a5.5,5.5,0,0,0,.3-1.6,5.8,5.8,0,0,0-.9-3.1l-.6-.9-.3-.3-.2.4-.5,1-.3.7-.3.7a6.2,6.2,0,0,0-.3,1.7,7.2,7.2,0,0,0,.6,3.1l.4.8-2.9,2.7a5.8,5.8,0,0,0,.5-1.5,4.1,4.1,0,0,0,.1-.9,5.5,5.5,0,0,0-.1-.8,6.4,6.4,0,0,0-.4-1.4,6.5,6.5,0,0,0-.7-1.3,7.1,7.1,0,0,0-.9,1.1l-.7,1.3a7.6,7.6,0,0,0-.5,1.6,6.4,6.4,0,0,0-.1,1.7c0,.3,0,.5.1.8v.7l.2.8h-.2l-.5.3-.2.2-.4.3-1.5.9-.4.3h-.2v-.2l.3-.4.4-.8a4.9,4.9,0,0,0,.3-1.7,6.5,6.5,0,0,0-.2-1.5,6.6,6.6,0,0,0-.5-1.4l-.3.2-.4.3-.2.2-.2.2-1,1.1-.2.3-.2.3-.4.8-.3.8-.2.8a8.7,8.7,0,0,0-.1,1.5c0,.3,0,.6,0,.8l-3.3,1.2h-.5a5.7,5.7,0,0,0,1.1-1.1,5.5,5.5,0,0,0,.8-3.1,6.8,6.8,0,0,0-.1-1.1v-.4h-.4l-.9.5-.6.4-.6.5-1.1,1.2a8.1,8.1,0,0,0-1.2,2.9v.8l-4,.5.6-.3.7-.6a5,5,0,0,0,1-1.4,6.1,6.1,0,0,0,.5-1.4,6.6,6.6,0,0,0,.2-1.5h-.8l-.6.2-1.3.6a5.9,5.9,0,0,0-1.4.9l-.3.3-.3.3-.5.7-.7,1.3-.3.8h-.2v.7h0V91h.2l.3.8a6.1,6.1,0,0,0,.8,1.3l.6.7.4.3.4.3a7.3,7.3,0,0,0,1.9.8l1.9.2h2a6.9,6.9,0,0,0-.8-1.3l-1-1.1a7,7,0,0,0-1.5-1.1l-.9-.4-.7-.2,4.1-.5.5.7a5.5,5.5,0,0,0,2.7,2,6,6,0,0,0,2,.3h1l.9-.2,1.4-.4h.5l-.3-.3-.8-.8a7.7,7.7,0,0,0-2.9-1.6l-1.6-.3.5-.2,3.4-1.3.6.6,1.3.8.8.3,1,.2h2l1.8-.6.4-.2.3-.2.5-.3.5-.3a7,7,0,0,0-1.3-.9l-1.4-.6-1.8-.4H141l.5-.3,1.5-.9.4-.3.2-.2.5-.3h.2l.7.5.7.3.8.2a5.5,5.5,0,0,0,1.9.1,6,6,0,0,0,1.9-.5l1.6-.9a11.8,11.8,0,0,0,1.5-1.2,7,7,0,0,0-1.4-.6l-1.5-.3h-1.8l-1.6.4,3-2.9.8.3a5.9,5.9,0,0,0,3.3.1A7.1,7.1,0,0,0,156,79l.8-.6.6-.6.9-1,.3-.4h-.4l-1.1-.2a7.2,7.2,0,0,0-3.3.2l-1.5.6h.1l1.6-2.1.5-.7.3-.5.8.2a5.9,5.9,0,0,0,3.3-.4,7,7,0,0,0,1.6-1.1l.7-.7.5-.7a11.2,11.2,0,0,0,1-1.6l-1.5-.2a7,7,0,0,0-3.3.6l-1.4.9.7-1.1,1.2-2.3v-.3h.8a6.1,6.1,0,0,0,3.2-.8,6.5,6.5,0,0,0,1.5-1.3,9.1,9.1,0,0,0,1.1-1.4A11,11,0,0,0,166,62h-1.5l-1.5.3-1.6.7-1.3,1,.2-.5.2-.5.4-1,.7-1.8h.8a5.9,5.9,0,0,0,3.1-1.1l.7-.7.6-.7a10.2,10.2,0,0,0,.9-1.5l.5-1.2v-.5h-1.5a7,7,0,0,0-3,1.3L162.7,57q.6-1.9,1.2-4h.8a6.2,6.2,0,0,0,3-1.4,8.2,8.2,0,0,0,2-3.1,10.5,10.5,0,0,0,.5-1.7l-1.5.2-1.4.5-.7.4-.7.6a6.8,6.8,0,0,0-1.1,1.2l.3-1.5.5-2.5.8-.2a6,6,0,0,0,2.9-1.6,6.8,6.8,0,0,0,1.1-1.6l.4-.8.3-.8a10.5,10.5,0,0,0,.4-1.8Z"/><path class="cls-8" d="M22.1,63a4.4,4.4,0,0,1,2.1.2l1,.5-.5-.7L24,62h.1l-.4-.2A4.9,4.9,0,0,1,22,60.1a4.2,4.2,0,0,1-.5-1.2,6,6,0,0,1-.2-1.1,5.4,5.4,0,0,1,0-1.1l.9.5.8.7.8,1a5.7,5.7,0,0,1,.7,2.2v.4h.1l.7,1,.5.7a4,4,0,0,1-.1-1,4.1,4.1,0,0,1,.7-2l.6-.8a5.7,5.7,0,0,1,.5.9l.2.5.2.5a4.2,4.2,0,0,1,.1,1.2,4.6,4.6,0,0,1-.6,2l-.3.5.5.7,1.1,1.4a4,4,0,0,1-.2-1,3.5,3.5,0,0,1,0-.6v-.5a4.5,4.5,0,0,1,.4-.9,4.4,4.4,0,0,1,.6-.8,5.6,5.6,0,0,1,.6.9,4.8,4.8,0,0,1,.6,2.1,4.4,4.4,0,0,1-.4,2.1l-.3.5L32,70.7a3.6,3.6,0,0,1-.3-1,3.9,3.9,0,0,1,.4-2.1,4.4,4.4,0,0,1,.5-.9l.2.2.4.6.5.9.2.5v.6a4.7,4.7,0,0,1-.2,2.1l-.2.5.9.8.5.4.3.2.3.2a4,4,0,0,1-.4-1,3.3,3.3,0,0,1-.1-1.1,4.6,4.6,0,0,1,.6-1.9l.7.8.6.8a4.5,4.5,0,0,1,.4,1.1,4.6,4.6,0,0,1,0,2.1v.5h.1l1.4.9.7.4a3.7,3.7,0,0,1-.5-.9,3.9,3.9,0,0,1-.1-2.1,4.3,4.3,0,0,1,.3-.9l.8.7.3.4.3.4a4.1,4.1,0,0,1,.5,1,4.7,4.7,0,0,1,.2,2.1v.5l.3.2.5.2,1.5.7h0l-.6-.8a3.8,3.8,0,0,1-.4-2.1,4.6,4.6,0,0,1,.1-.7v-.3h.2l.6.4.4.3.4.4.7.9a4.7,4.7,0,0,1,.6,2c0,.2,0,.4,0,.5l2.5.7-.7-.7-.3-.5-.2-.5a4.2,4.2,0,0,1-.2-1,4.2,4.2,0,0,1,0-1l.9.4.8.5.8.8a4.2,4.2,0,0,1,.6,1l.2.5v1h2.2l-.5-.4a3.2,3.2,0,0,1-.7-.9,4.3,4.3,0,0,1-.3-.9,4.3,4.3,0,0,1-.1-1h.9l.9.3h.5l.5.3.4.4.3.4.5.8.2.5,2.3-.3h.3l-1-.3a3.6,3.6,0,0,1-1.4-1.5l-.3-.7v-.3h1.9l1,.4A5.3,5.3,0,0,1,59.5,80l.3.4,2.5-.9h-1l-1-.5-.7-.7a4.3,4.3,0,0,1-.5-.8h3.5l.5.2.8.5.4.4h.1l.2.4h0l.2.4h-.1a4.4,4.4,0,0,1,.1.5,4,4,0,0,1-.1,1l-.2.6v.3l-.2.3a4.8,4.8,0,0,1-.9,1l-1,.7-.5.2h-.7a4.6,4.6,0,0,1,.1-1,5.6,5.6,0,0,1,.3-1,4.6,4.6,0,0,1,.5-1.1l.4-.5.3-.3-2.6.9a4.6,4.6,0,0,1-.1.5,3.6,3.6,0,0,1-1,2,3.9,3.9,0,0,1-1.1.8l-.6.3-.6.2-.9.2h-.4V85l.2-.7a5,5,0,0,1,1.2-1.8l.9-.7h-.4l-2.4.3-.2.5-.5.9-.4.4-.5.4-.6.3h-.6l-1.2.2H49.9a4.6,4.6,0,0,1,.5-.9l.6-.8.9-.7.6-.3H50.3l-.3.5-.3.4-.4.4-1,.6L47,84H45.8l-1.2-.3.6-.8.8-.6.5-.3.6-.2,1.1-.2-2.6-.8-.4.4a3.9,3.9,0,0,1-1.9,1.1H41.2l-.5-.2-.8-.3-.3-.2.2-.2.6-.5a4.7,4.7,0,0,1,2-.9h1l-1.6-.8-.5-.2-.3-.2-.4.3a3.9,3.9,0,0,1-2.1.8H37.2l-.6-.2-.5-.2L35,78.6l.8-.6a4.6,4.6,0,0,1,2.1-.6H39l-.7-.5-1.4-1h-.1l-.5.3a4,4,0,0,1-2.1.5L33,76.5l-1-.5-1-.7.9-.5,1-.3H34l1,.2-.3-.2-.3-.2-.5-.5-.9-.8-.5.2a3.9,3.9,0,0,1-2.2.3l-.6-.2-.6-.2-1-.6-.6-.6-.2-.2.9-.4a4.6,4.6,0,0,1,2.2-.1l1,.3-1.9-2-.5.2a4.1,4.1,0,0,1-2.2.1,5.4,5.4,0,0,1-2.1-1.2l-.8-.9,1-.3h2.2l1,.4-.7-.8-1-1.3h-.5a3.9,3.9,0,0,1-2.2-.1L22.7,65l-.5-.4-.4-.4-.7-.9Z"/><path class="cls-7" d="M116.6,95H75.4c-8.2,12.2-21.8,32.5-53.9,49.4A50.5,50.5,0,0,0,9.7,128.8l-2.1-1.6Q32.9,114.7,48.9,95H12.2V77.4H60.9a90.9,90.9,0,0,0,4.5-9.1H88.6a83.1,83.1,0,0,1-3.7,9.1h21.8a93.7,93.7,0,0,1-4.1-9.1h22q2.9,5.4,5.2,9.1h47.8V95H142.8a105.1,105.1,0,0,0,39.6,27.3c-5.1,4.4-10.2,11-14.6,18.2C135.7,127.1,116.6,95,116.6,95Z"/><path class="cls-9" d="M55,153.2a1.2,1.2,0,0,0,1.2-1.9c-3.4-4.9-4.8-11.8-5.7-17.7a18.5,18.5,0,0,0-1.3-5.1,5.3,5.3,0,0,0-4-3.2,3.8,3.8,0,0,0-3.4,6.1c-1.7-1.8-2.8-3.9-4.3-5.8s-3.6-3.6-6-3.6a3.7,3.7,0,0,0-2.5.8,3.8,3.8,0,0,0-1,3.7,11.1,11.1,0,0,0,1.8,3.6,15.3,15.3,0,0,0-9-5.3c-2.6-.5-4.6,0-5.6,1.6s-.7,3.6.9,5.8a15.3,15.3,0,0,0,8.6,6,11.1,11.1,0,0,0-4-.1,3.8,3.8,0,0,0-3,2.4,3.7,3.7,0,0,0,.4,2.6c1.1,2.2,3.5,3.4,5.8,4s4.8.7,7.1,1.5a3.8,3.8,0,0,0-4.1,5.7,5.3,5.3,0,0,0,4.5,2.3,18.5,18.5,0,0,0,5.2-1C42.3,153.8,49.1,152.1,55,153.2Z"/><line class="cls-10" x1="28.8" y1="135" x2="56.3" y2="152.6"/><path class="cls-11" d="M35.4,133.6s2.6,4,1.5,6.6-6.7,1.4-6.7,1.4"/><path class="cls-11" d="M43.2,138.1a14.8,14.8,0,0,1-.6,5.8c-1.5,1.8-5,2.9-5,2.9"/><path class="cls-7" d="M121.4,132.3V121.1H67.3v11.2ZM67.3,160.2h54.1V148H67.3Zm76.2-55.8v77.4H121.4V177H67.3v5.5H45.9V104.4Z"/><path class="cls-12" d="M103.1,182.5c1.9.3,3.5-1.7,3.4-3.6a6.1,6.1,0,0,0-3.1-4.5c-4.3-2.8-9.9-2.2-15-2.1s-11.1-.8-13.8-5.2-1.6-6.7-3-9.9-6.7-7-11.4-7.7-9.6.2-14.3,1.1v31.9Z"/><rect class="cls-13" x="141.5" y="149.5" width="2" height="21.19"/><ellipse class="cls-14" cx="139.8" cy="141.4" rx="2.5" ry="7.2" transform="translate(-42.5 62.2) rotate(-21.8)"/><ellipse class="cls-14" cx="135.9" cy="145.2" rx="2.5" ry="7.2" transform="translate(-51.1 213.1) rotate(-66.8)"/><ellipse class="cls-14" cx="135.8" cy="150.8" rx="7.2" ry="2.5" transform="translate(-46.4 61.4) rotate(-21.9)"/><ellipse class="cls-14" cx="139.7" cy="154.7" rx="7.2" ry="2.5" transform="translate(-57.5 222.3) rotate(-66.8)"/><ellipse class="cls-14" cx="145.2" cy="154.8" rx="2.5" ry="7.2" transform="translate(-47.2 65.2) rotate(-21.9)"/><ellipse class="cls-14" cx="149.2" cy="150.9" rx="2.5" ry="7.2" transform="translate(-48.2 228.7) rotate(-66.8)"/><ellipse class="cls-14" cx="149.3" cy="145.4" rx="7.2" ry="2.5" transform="translate(-43.4 65.9) rotate(-21.8)"/><ellipse class="cls-14" cx="145.4" cy="141.4" rx="7.2" ry="2.5" transform="translate(-41.8 219.5) rotate(-66.8)"/><ellipse class="cls-15" cx="142.5" cy="140.8" rx="2.5" ry="7.2"/><ellipse class="cls-15" cx="137.4" cy="143" rx="2.5" ry="7.2" transform="translate(-60.8 139) rotate(-45)"/><ellipse class="cls-15" cx="135.3" cy="148.1" rx="7.2" ry="2.5"/><ellipse class="cls-15" cx="137.4" cy="153.2" rx="7.2" ry="2.5" transform="translate(-68.1 142) rotate(-45)"/><ellipse class="cls-15" cx="142.5" cy="155.3" rx="2.5" ry="7.2"/><ellipse class="cls-15" cx="147.7" cy="153.2" rx="2.5" ry="7.2" transform="translate(-65.1 149.3) rotate(-45)"/><ellipse class="cls-15" cx="149.8" cy="148.1" rx="7.2" ry="2.5"/><ellipse class="cls-15" cx="147.7" cy="143" rx="7.2" ry="2.5" transform="translate(-57.8 146.3) rotate(-45)"/><circle class="cls-16" cx="142.5" cy="148.1" r="2.7"/><rect class="cls-17" x="133.2" y="168.1" width="18.6" height="1.65"/><polygon class="cls-17" points="147.5 182.2 137.6 182.2 135.6 169.7 149.5 169.7 147.5 182.2"/><polygon class="cls-18" points="149.3 171.1 135.8 171.1 135.6 169.7 149.5 169.7 149.3 171.1"/></svg>