<?xml version="1.0" encoding="utf-8"?>
<!-- Generator: Adobe Illustrator 21.1.0, SVG Export Plug-In . SVG Version: 6.00 Build 0)  -->
<svg version="1.1" id="圖層_1" xmlns="http://www.w3.org/2000/svg" xmlns:xlink="http://www.w3.org/1999/xlink" x="0px" y="0px"
	 viewBox="0 0 190 185" style="enable-background:new 0 0 190 185;" xml:space="preserve">
<style type="text/css">
	.st0{fill:#60B02E;}
	.st1{fill:#009938;}
	.st2{fill:#00802E;}
	.st3{fill:#00702E;}
	.st4{fill:#70CBFF;}
	.st5{fill:#00B35E;}
	.st6{fill:#FFFFFF;}
	.st7{fill:#E55952;}
	.st8{fill:#221815;}
	.st9{fill:#5FC6FF;}
	.st10{fill:#6FB82C;}
	.st11{fill:#A0C910;}
	.st12{fill:#00A53B;}
	.st13{clip-path:url(#SVGID_2_);}
	.st14{fill:#F3AE5A;}
	.st15{fill:#FCE6AC;}
	.st16{fill:#F6BE5A;}
	.st17{fill:#FCDD8D;}
	.st18{fill:#E6370D;}
	.st19{fill:#FFE58D;}
	.st20{fill:#6AC6FF;}
	.st21{fill:#8CDBF3;}
	.st22{fill:#C7C8C9;}
	.st23{fill:#878787;}
	.st24{fill:#EBEBEB;}
</style>
<symbol  id="草_1" viewBox="-14.4 -22 28.9 44">
	<path class="st0" d="M-0.9,18.7c0,0,4.7-15.5-2.1-40.7C9.2,0.3,1.4,14-0.9,18.7z"/>
	<path class="st1" d="M-3.3,15.6c0,0,1.4-11.6-11.1-20.5c10.8,11.4,9,21,10.3,26.9L-3.3,15.6z"/>
	<path class="st2" d="M5.2,17.8c0,0-2.4-11.6,5.7-17C8.4,6.2,6.5,11.9,5.2,17.8z"/>
	<path class="st3" d="M7.6,18.1c0,0-0.2-7.9,4.9-9.7C13.6,7.6,11.1,13,7.6,18.1z"/>
	<path class="st2" d="M-3.7,7c0,0,3.8-7.9-7.1-21.7C-8-8.6-4.8-0.8-3.7,7z"/>
	<path class="st1" d="M5.1,3.8c0,0,0.5-19.4,9.3-22.3C9.4-10.3,8-5.8,5.1,3.8z"/>
</symbol>
<title>四季svg</title>
<rect x="54.6" y="82.4" class="st4" width="81.8" height="12"/>
<path class="st5" d="M94.6,84.6c1.8,10.2-5.1,19.9-15.2,21.7S59.5,101.2,57.7,91l0,0L94.6,84.6z"/>
<path class="st6" d="M92.7,84.9c1.3,9.2-5.1,17.7-14.2,19c-8.8,1.3-17.1-4.6-18.9-13.3L92.7,84.9z"/>
<path class="st7" d="M91.9,85c1.2,8.8-5,16.8-13.7,18c-8.3,1.1-16-4.3-17.8-12.5L91.9,85z"/>
<path class="st8" d="M69.3,92.1c-0.2,0.3-0.6,0.3-0.8,0.2c-0.3-0.2-0.3-0.6-0.2-0.8c0.1-0.1,0.2-0.2,0.3-0.2
	c0.4-0.2,0.9-0.3,1.4-0.4C69.8,91.3,69.6,91.7,69.3,92.1z"/>
<path class="st8" d="M73,93.9c0,0.3-0.3,0.6-0.7,0.5c-0.3,0-0.6-0.3-0.5-0.7c0-0.1,0-0.2,0.1-0.2c0.1-0.3,1-1,1-1
	C73,93,73,93.4,73,93.9z"/>
<path class="st8" d="M77.2,91.2c0.2,0.3,0.1,0.7-0.2,0.8c-0.3,0.2-0.7,0.1-0.8-0.2c-0.1-0.1-0.1-0.3-0.1-0.4c0.1-0.5,0.2-1,0.4-1.4
	C76.8,90.4,77,90.8,77.2,91.2z"/>
<path class="st8" d="M81.7,91.8c0.3,0.2,0.3,0.6,0.2,0.8c-0.2,0.3-0.6,0.3-0.8,0.2c-0.1-0.1-0.2-0.2-0.2-0.3
	c-0.2-0.4-0.3-0.9-0.4-1.4C80.9,91.3,81.3,91.5,81.7,91.8z"/>
<path class="st8" d="M83.8,88.5c0.3,0,0.6,0.3,0.5,0.7c0,0.3-0.3,0.6-0.7,0.5c-0.1,0-0.2,0-0.2-0.1c-0.3-0.1-1-1-1-1
	C82.9,88.5,83.3,88.5,83.8,88.5z"/>
<rect x="17.6" y="19.2" class="st9" width="156.2" height="17.5"/>
<path class="st10" d="M147.6,49.3c0-1.1-0.2-2.2-0.5-3.2l2.9,1.5c2.9-2.3,5.4-5,7.3-8.2c-0.4-0.2-2.2-0.9-2.2-1.2s1.1-0.3,1.5-0.3
	h1.4l0.2-0.3c1.6-3.6,2.4-7.4,2.4-11.3h-1.8l-1.1,0.4c-0.5-0.1-0.3-0.1-0.2-0.5s1.6-3.3,2.9-4.6c-0.4-4-1.3-8-2.8-11.8l-21.2,45
	C140.4,53.5,144.1,51.6,147.6,49.3z"/>
<path class="st11" d="M134.7,29.9h0.3l2.5,1l1.6,0.5c-0.8,0-1.6,0-2.4-0.1h-2.4c-0.7,3.1-1,6.3-0.8,9.5c0.4-0.2,1.4,2.6,0.6,3.3
	l-0.3,0.3c0.5,3.5,1.4,6.9,2.7,10.2l21.1-44.7c-2,0.7-3.9,1.5-5.7,2.4c0.1,1.1-0.1,2.2-0.6,3.2c-0.3-0.5-0.5-1-0.6-1.5l-0.3-1
	c-4.2,2.2-8,5.2-11.1,8.8c0,0.1,0,0.3,0,0.4c0,0.2,0.7,3.1-0.3,2.6s-0.3-0.6-0.3-0.8c-0.1-0.4-0.1-0.9-0.1-1.3
	c-1.1,1.4-2,2.8-2.7,4.4C135.4,28,135,28.9,134.7,29.9z"/>
<path class="st12" d="M169,34.9c-0.7,0.6-1.4,1.3-2,2l-0.6-1.8c-3.4,0.4-6.7,1.2-9.9,2.4c0.1,0.2,0.7,1.2,0.5,1.4s-0.9-0.2-1.1-0.3
	l-0.9-0.5h-0.3c-3.3,1.5-6.5,3.4-9.3,5.7l1.2,0.5h0.9c0.2,0.2,0.1,0.2-0.3,0.4c-1.5,0.8-3.2,1.4-4.9,1.7c-2.4,2.3-4.6,4.8-6.5,7.6
	l43.5-19.1C175.9,34.5,172.4,34.5,169,34.9z"/>
<path class="st10" d="M163,50v-0.2c-0.2-0.5-0.4-1-0.7-1.4c-0.2-0.2-0.5-0.5-0.6-0.8s0.8,0.6,1.3,0.8l1,0.6l0.4,0.2
	c2.5-1.5,4.9-3.2,7.1-5.2h-1.1l-2.1-0.5c-0.3-0.1-0.5-0.1-0.6-0.3l3.1-0.6l2.7-0.6h0.4c2.1-2,4-4.3,5.6-6.7l-43.7,19
	c1.7,0.2,3.3,0.4,5,0.4c0.8-0.7,1.6-1.3,2.6-1.7c-0.2,0.4-0.4,0.7-0.7,1l-0.5,0.6c4.2,0.1,8.5-0.4,12.6-1.5l0.3-0.3
	c0.1-0.1,1.7-2,2-1.4s-0.3,0.4-0.4,0.6l-0.9,0.8c1.6-0.5,3.2-1,4.7-1.7L163,50z"/>
<g>
	<defs>
		<path id="SVGID_1_" d="M121,156.1c13.2-7.9,23.4-17.1,30.7-27.8l-13.4-8.4l-3.9,0.9h-52c2.1-2.1,7.3-6.4,9.3-8.8H65.9
			c-11.5,10.2-31.7,20.4-54.5,26.4l1.6,1.2c4.6,3.9,8.3,8.6,11.1,13.9c12.7-4.4,22.8-8.6,30.3-12.5c5.6,5.8,11.7,10.9,18.4,15.4
			c-17.5,4.5-38.5,7.5-63.2,8.9c3.6,5.3,6.3,11.1,8,17.3c30.8-2.9,56.6-7.9,77.5-15c20.5,8,45.6,13,75.3,15c3-7,7.1-13.5,12.1-19.3
			C158.8,162.4,138.3,160,121,156.1z M96.5,148.4c-8.1-3.2-15.7-7.5-22.5-13h44.8C112,140.8,104.5,145.2,96.5,148.4L96.5,148.4z"/>
	</defs>
	<clipPath id="SVGID_2_">
		<use xlink:href="#SVGID_1_"  style="overflow:visible;"/>
	</clipPath>
	<g class="st13">
		<rect x="21.9" y="93.5" class="st14" width="158.6" height="75.7"/>
		<path class="st14" d="M26.1,124.2l-1.2,0.6c4.8,1,9.6,2.4,14.2,4c23.7,8.5,45.3,30.8,84.5,42.6c16.4,4.9,35.9,8.1,60,7.6
			c7.1-12.3,15.5-23.7,24.9-34.3h0.1C184.5,143.8,94.3,137,26.1,124.2z"/>
		<path class="st15" d="M6.6,139.5l-4.8-2.9l-5.8,2.8c-16.7,8.1-37.3,17.4-58.5,25.3c39.8,13.7,80.6,24.3,122,31.5l14.5,2.5
			C41.9,178.1,26.7,152.9,6.6,139.5z"/>
		<path class="st16" d="M183.5,179c-24,0.5-43.5-2.6-60-7.6c-39.2-11.8-60.8-34.1-84.5-42.6c-4.6-1.6-9.4-3-14.2-4l-3,1.6l-0.4,0.2
			l-2.5,1.4l-17,8.6l4.8,2.9c20.1,13.4,35.2,38.6,67.4,59.1l16,2.4c24.2,3.4,50.4,6,78.2,7.2c1.7-3.6,5.7-12.4,11.8-23.3L183.5,179z
			"/>
		
			<ellipse transform="matrix(1.745302e-03 -1 1 1.745302e-03 -6.0215 247.4109)" class="st17" cx="120.9" cy="126.7" rx="0.3" ry="0.6"/>
		
			<ellipse transform="matrix(1.745302e-03 -1 1 1.745302e-03 -11.1255 247.1064)" class="st17" cx="118.2" cy="129.1" rx="0.3" ry="0.6"/>
		
			<ellipse transform="matrix(1.745302e-03 -1 1 1.745302e-03 7.932620e-02 252.5211)" class="st17" cx="126.5" cy="126.2" rx="0.3" ry="0.6"/>
		
			<ellipse transform="matrix(1.745302e-03 -1 1 1.745302e-03 -7.8287 253.8149)" class="st17" cx="123.2" cy="130.8" rx="0.3" ry="0.6"/>
		
			<ellipse transform="matrix(1.745302e-03 -1 1 1.745302e-03 5.7788 259.0319)" class="st17" cx="132.6" cy="126.6" rx="0.3" ry="0.6"/>
		
			<ellipse transform="matrix(1.745302e-03 -1 1 1.745302e-03 -0.5299 262.9296)" class="st17" cx="131.4" cy="131.7" rx="0.3" ry="0.6"/>
		
			<ellipse transform="matrix(1.745302e-03 -1 1 1.745302e-03 -0.3258 258.1255)" class="st17" cx="129.1" cy="129.2" rx="0.3" ry="0.6"/>
		
			<ellipse transform="matrix(1.745302e-03 -1 1 1.745302e-03 11.4777 266.1429)" class="st17" cx="139" cy="127.3" rx="0.3" ry="0.6"/>
		
			<ellipse transform="matrix(1.745302e-03 -1 1 1.745302e-03 7.0728 267.1401)" class="st17" cx="137.3" cy="130" rx="0.3" ry="0.6"/>
		
			<ellipse transform="matrix(1.745302e-03 -1 1 1.745302e-03 2.1679 268.0364)" class="st17" cx="135.3" cy="132.9" rx="0.3" ry="0.6"/>
		
			<ellipse transform="matrix(1.745302e-03 -1 1 1.745302e-03 8.2691 272.7458)" class="st17" cx="140.7" cy="132.2" rx="0.3" ry="0.6"/>
		
			<ellipse transform="matrix(1.745302e-03 -1 1 1.745302e-03 14.6728 274.9533)" class="st17" cx="145.1" cy="130.1" rx="0.3" ry="0.6"/>
		
			<ellipse transform="matrix(1.745302e-03 -1 1 1.745302e-03 -12.5383 260.3167)" class="st17" cx="124.1" cy="136.4" rx="0.3" ry="0.6"/>
		
			<ellipse transform="matrix(1.745302e-03 -1 1 1.745302e-03 -4.9355 264.5271)" class="st17" cx="130" cy="134.7" rx="0.3" ry="0.6"/>
		
			<ellipse transform="matrix(1.745302e-03 -1 1 1.745302e-03 -9.8404 265.4235)" class="st17" cx="128" cy="137.6" rx="0.3" ry="0.6"/>
		
			<ellipse transform="matrix(1.745302e-03 -1 1 1.745302e-03 -3.739 269.9331)" class="st17" cx="133.3" cy="136.8" rx="0.3" ry="0.6"/>
		
			<ellipse transform="matrix(1.745302e-03 -1 1 1.745302e-03 2.6644 272.3404)" class="st17" cx="137.7" cy="134.8" rx="0.3" ry="0.6"/>
		
			<ellipse transform="matrix(1.745302e-03 -1 1 1.745302e-03 -10.6178 238.7996)" class="st17" cx="114.3" cy="124.7" rx="0.3" ry="0.6"/>
		
			<ellipse transform="matrix(1.745302e-03 -1 1 1.745302e-03 -6.3313 258.7209)" class="st17" cx="126.4" cy="132.5" rx="0.3" ry="0.6"/>
	</g>
</g>
<path class="st18" d="M155.7,142.2l-7.5,22.8c0,0.6,0.4,1,1,1c0.3,0,0.6-0.1,0.8-0.4l7.5-22.8L155.7,142.2z"/>
<path class="st19" d="M159.5,129.2c0.3-0.5,0.9-0.7,1.5-0.5c0.7,0.2,1.1,0.8,0.9,1.3l-0.4,1.3l-2.5-0.8L159.5,129.2z"/>
<path class="st18" d="M170.3,153.6v-0.2c2.1-9-1.4-21.1-9.5-23.7c10.2,3.4,16.2,14,16.1,22.7h-0.3C174,151.4,171.5,152,170.3,153.6z
	"/>
<path class="st18" d="M139,143v0.2c0-2-1.7-4-4.2-4.8h-0.4c5.2-7,16.3-12,26.5-8.6C152.6,127,142.7,134.6,139,143z"/>
<path class="st19" d="M170.3,153.4c-0.1-1.9-1.8-3.8-4.2-4.6s-5.1-0.2-6.3,1.4c0-0.2,0-0.4,0-0.6c2.6-8.8,3.6-19.1,1-19.9
	C168.9,132.3,172.4,144.4,170.3,153.4z"/>
<path class="st19" d="M149.7,146.2l-0.4,0.4c0-2-1.7-4-4.2-4.8s-4.9-0.3-6.1,1.2c3.7-8.5,13.6-16.1,21.8-13.4
	C158.2,128.8,152.9,137.7,149.7,146.2z"/>
<path class="st18" d="M159.8,149.6c-1.1-3.4-4.7-5.4-8.1-4.3c-0.7,0.2-1.4,0.6-2,1c3.2-8.6,8.5-17.5,11.1-16.6
	S162.3,140.8,159.8,149.6z"/>
<path class="st20" d="M105.6,36.7c-0.7,2.4-1.5,4.8-2.5,7.1h55.2V114H33.7V43.8h47.1c0.3-1.4,0.8-3.8,1.3-7.1H105.6z M54.6,55.8v7.1
	h81.8v-7.1H54.6z M54.6,75.1v26.6h81.8V75L54.6,75.1z"/>
<path class="st21" d="M15,36.7h34.7c0.6-0.9,1-1.9,1-3c0.1-3.2-2.3-5.9-5.5-6c-0.8-0.1-1-0.4-0.7-1.1c0.5-1.3,0.2-2.7-0.8-3.6
	c0,0-0.1-0.1-0.1-0.1c-1.4-1.4-3.7-1.4-5.1,0c-0.3,0.3-0.7,0.4-0.9,0.1c-0.1-0.2-0.2-0.3-0.2-0.5c0-0.1-0.1-0.3-0.1-0.4
	C36,18,31.6,15.7,27.5,17c-0.2,0.1-0.3,0.1-0.5,0.2c-4,1.5-6,5.9-4.5,9.9c0.1,0.3,0.1,0.6-0.1,0.8c-0.2,0.2-0.5,0.2-0.8,0.1
	c-1-0.3-2-0.4-3-0.2c-3,0.6-5,3.3-4.6,6.3C14.1,35.1,14.5,35.9,15,36.7z"/>
<polygon class="st22" points="46.1,84.1 21.6,106.7 19.3,96.2 "/>
<polygon class="st23" points="46.1,84.1 21.6,106.7 27,98.5 "/>
<polygon class="st24" points="46.1,84.1 9.5,93.9 19.3,96.2 "/>
<polygon class="st24" points="46.1,84.1 37.5,106.9 27,98.5 "/>
<use xlink:href="#草_1"  width="28.9" height="44" x="-14.4" y="-22" transform="matrix(0.8606 0 0 0.8606 38.227 147.3501)" style="overflow:visible;"/>
<circle class="st21" cx="158.3" cy="65.1" r="9"/>
<circle class="st21" cx="172.4" cy="77.7" r="4.5"/>
</svg>
