<svg id="圖層_1" data-name="圖層 1" xmlns="http://www.w3.org/2000/svg" viewBox="0 0 450 600"><defs><style>.cls-1{fill:#fff;}</style></defs><title>taiwan</title><polygon class="cls-1" points="437 76.8 435.8 76.6 435.7 76.5 435.6 76.5 435.5 76.5 435.4 76.7 433.9 77.5 433.3 77.3 434.1 78.6 434.1 78.6 434.4 79 435.2 79.5 437.6 79.6 438 78.1 437.6 77.7 437 76.8"/><polygon class="cls-1" points="374.2 574.1 373.6 572.5 373.8 570.7 374.4 569.2 374.7 568.6 374.7 567.5 362.6 567.5 363.7 568.8 364.3 570.2 364.3 571.8 363.6 573.5 366 575.7 370.2 578.7 374.7 580.5 378.1 579.5 378.3 577.8 377 576.2 374.2 574.1"/><polygon class="cls-1" points="363.2 470.4 363.3 469.7 363 468.7 363.3 467.7 363.8 466.7 364.3 464.3 363.9 463.1 363.2 462.7 357 463.1 356.6 463.5 357.5 466.1 359.2 469.1 360.9 469.8 361.1 470.1 361.7 470.3 362.8 470.3 363.2 470.4"/><polygon class="cls-1" points="125.8 394.2 125.3 393.5 124.9 393.5 124.7 394.3 125.7 396.9 127.1 398.1 127.5 397.4 127.6 396.8 126.3 395.4 125.8 394.2"/><polygon class="cls-1" points="180.9 520.1 180.7 519.8 180.6 519.8 180.4 519.5 180 519.8 178.7 519.8 177 522 177 522 176.2 523.7 176.7 525.6 176.7 525.6 176.7 525.7 178.6 524.1 179.6 523.2 179.8 523.1 181.5 521.9 181.4 521.6 181.7 521.3 180.9 520.1"/><polygon class="cls-1" points="67 359 66.5 359.5 66.3 359.5 66.5 359.6 66.4 359.6 66.7 359.7 67 359.8 67 359.5 66.9 359.5 67 359"/><polygon class="cls-1" points="68.4 359.5 68.1 359.3 68.1 359.5 68.1 359.5 68 360.6 68.3 361.4 68.6 362.3 68.6 362.3 68.6 362.3 69.1 361.2 69.8 360.3 69.5 360.1 69.8 359.5 68.4 359.5"/><polygon class="cls-1" points="29.4 364.2 28.2 362.2 26.3 361.9 25.5 362.6 25.7 364.2 26.9 365.7 28.3 366.1 29.4 364.2"/><polygon class="cls-1" points="12 348.5 11.7 348.7 11.9 348.9 11.9 349 12.1 348.9 12.1 348.6 12 348.5"/><polygon class="cls-1" points="13.1 333.7 12.3 333.4 12.1 333.5 11.7 333.3 11.5 333.6 11.4 333.6 10.8 335 11.3 335.3 11.3 335.4 11.5 335.6 12.8 335.3 13.1 334.7 13 334.1 13.1 333.7"/><polygon class="cls-1" points="14.3 349.4 14.5 349.5 14.6 348.8 14.1 348.5 14.3 349.4"/><polygon class="cls-1" points="60.3 360.6 60.1 360.2 60 360.7 60.3 360.7 60.3 360.6"/><polygon class="cls-1" points="39 305.3 40.9 305 41.1 304.1 40.7 302.9 40.7 301.5 42.5 296.3 43.5 294.1 45.1 293.2 42.5 290.9 40.5 292.8 38.5 299.2 38.5 302.2 38.1 303.4 36.8 303.9 35.2 304.1 34 304.4 33.3 305.2 32.9 306.5 35.2 306.5 35.9 305.9 36.7 305.5 37.7 305.3 39 305.3"/><polygon class="cls-1" points="14.3 349.5 14.1 349.6 14.3 349.9 14.3 349.9 14.4 350 14.6 349.9 14.5 349.6 14.3 349.5"/><polygon class="cls-1" points="45.7 339.9 45.2 340.2 44.6 341.1 44.3 342 44.6 342.2 46.4 341.1 46.9 341.1 47.4 341 47.6 340.2 46.6 339.7 45.7 339.9"/><polygon class="cls-1" points="56.8 275.3 57.4 277 57.5 276.9 57.5 277.2 57.7 276.6 58.9 275.1 60.3 274.4 60.6 273.2 59 272.4 59 272.1 58.7 271.7 58.4 272.3 57.7 273.6 56.6 274.5 56.9 275.1 56.8 275.3"/><polygon class="cls-1" points="53.5 292.8 54.1 294.9 54.7 295.8 56.1 295.4 57 294 56.4 291.8 57.9 290.4 57.1 288.6 55.1 286.9 53 285.8 49.6 288.3 52.3 291 53.5 292.8"/><polygon class="cls-1" points="42.6 339.3 42.3 338.3 42.2 336.9 41.9 336.5 41.5 336.4 39.8 334.2 38.8 334.4 37.5 337.5 37.9 338.9 39.1 338.6 39.7 338.2 39.8 340.8 38.9 342.7 39.9 343.1 41.9 343.3 42.8 342.9 42.5 342.3 42.4 341.7 43.1 341 43.5 340.1 43.1 339.7 42.6 339.3"/><polygon class="cls-1" points="41.8 358.6 42.9 358.1 42.6 357.5 41.8 358.6"/><polygon class="cls-1" points="30.2 366.7 27.8 367.5 27.2 368.3 28.2 371.2 29 372.1 30.1 371.6 31.1 370.2 31.8 369.5 32 368.5 31.9 367.2 30.2 366.7"/><polygon class="cls-1" points="60.5 361.3 60.2 360.8 59.9 360.8 59.7 360.8 58.7 360.9 58.8 361.2 58.5 361.3 59.2 362.1 59.2 362.2 59.2 362.2 59.3 362.2 59.5 362.2 60 362.2 60.1 362.1 60.8 362 60.4 361.5 60.5 361.3"/><polygon class="cls-1" points="66.3 299.2 65.3 300.9 63.9 301 62 300.8 59.5 301.5 59.9 300.7 60.6 298 57.8 299 53.2 301.9 51.9 301.5 50.8 301.5 50.6 304 50.8 306.5 51.4 306.1 51.5 306 51.5 305.8 51.9 305.3 52.8 306.6 53.7 307.6 54.9 308.3 56.4 308.9 54.2 310.7 51.6 311.4 49.1 310.9 47.5 308.9 46.7 310.5 49.7 313.5 52.7 314.6 55.6 314.2 58.5 312.5 58.9 311.8 59.6 309.3 60.1 308.4 60.9 307.9 62.7 307.7 65.1 306.3 66.9 306.6 68.4 307.7 69.6 308.9 70 307.1 69.2 304.6 66.3 299.2"/><polygon class="cls-1" points="47.8 318 46.2 317.7 44.8 318.4 44.8 318.4 44.6 318.5 44 318.8 43.8 318.9 42.6 318.6 42.3 318.9 42.3 318.8 42.3 318.9 42.2 319 42.4 320.1 43 320.2 43 320.2 43.2 320.4 44.6 319.7 45.4 319.4 45.9 319.3 46.1 319.2 46.3 319.1 47.9 318 47.7 318 47.8 318"/><polygon class="cls-1" points="7.8 144 9.1 142.7 10.3 142 8.6 141.1 6.4 141.9 7.8 144"/><polygon class="cls-1" points="15.6 144 14.1 143.7 12.6 147.2 14 146.4 15.1 145.9 16.3 144.6 16.4 143.2 15.7 143.4 15.6 144"/><polygon class="cls-1" points="13.3 102.8 14.1 99.7 15 98.7 15.8 98.5 16.4 98.7 17.8 98 18.5 98.4 19.4 99.7 20.2 100.4 20.3 99.9 20 99.2 20.2 98.5 20.3 97.8 20 97.3 19.4 96.9 18.6 95.7 17.1 95.5 15.7 96.3 15.3 96.9 13.6 97.4 12.9 97.8 12.6 98.8 12.4 101.5 12.6 102.4 13.3 102.8"/><polygon class="cls-1" points="6 112.5 7.1 112.3 10.5 110.6 12.2 108.6 12.2 107.5 10.5 107.5 7.8 109.1 7.1 108.7 5.8 108.3 5.6 107.8 5.6 106.9 5 107 4.3 108.3 4 110 4.5 111.5 6 112.5"/><polygon class="cls-1" points="99.4 68.2 97.8 67.3 96.4 68.4 95.9 68.7 96.2 69.6 95.5 70.6 96.3 71 96.6 71.3 97.4 71.4 97.6 71.7 98.3 70.4 98.7 69.9 99.1 69.6 99.5 69.8 99.8 69.8 100.5 69.6 99.8 69 99.4 68.2"/><polygon class="cls-1" points="12.2 197.2 9.8 200.4 10.1 202.3 13.2 201.9 15.3 199.1 14.6 196.4 12.2 197.2"/><polygon class="cls-1" points="30.6 210.3 35.6 209.8 38.8 210.8 43 213.5 45.3 210.6 46 205.2 43.1 197.4 38.7 193.4 34.1 194.3 32.7 197.7 32 203.1 27.7 203.7 21.5 199.6 16.8 201.9 15.9 202.4 16 203.7 17.1 206.3 17.6 209 17.6 210.5 17.5 211.8 17.1 212.6 15.7 214.3 15.5 214.7 16.2 216 17.7 216.7 19.3 216.8 21.8 217.9 23.8 216.9 26.2 213.1 30.6 210.3"/><polygon class="cls-1" points="19 186.8 18.4 187.4 19 188.1 23.1 190.7 24.1 189.9 24.6 188.5 24.3 187 22.7 186 19.9 186.3 19 186.8"/><polygon class="cls-1" points="11.9 212 12.7 210.7 12.7 208.8 11.7 207.7 10.5 206.8 9.2 206.9 7.9 207.2 7.1 208 4 214.2 5.8 214.9 9.1 214 9.8 213.5 10.2 212.8 10.9 212.1 11.9 212"/><path class="cls-1" d="M444.8,48.3l-2.3-1.2-2.7-.7-2.2-.2-4.3.6-1.3-.6-1.6-2.5-1.6-5.3-.4-3.3.3-1.8,1-2.2-2-1.3-21.4-5.2-6.9-1.7L397,22l-1-1-.5-.6-.9-.6-1.4-1-.7-.8V16.7l.6-1.1.7-.8v-.6l-1.3-.4-1.9.3-1.7.4-.7.3L386,10.2l-6.2-8.7L377-.6l-6.7-.8L363.5.2l-5.9,3-4.1,3.7-2,3.6-1.2,3.2-.5.5-1.2.6-1.1.9-.6,1.7,1.9,1.2,3.6,3.6,2.2,3.5-2.1.9-1-1-.7-1.7-1.2-1.6-2.2-.7h-1.8l-1.4.3-1.2.5-3.8,3.2-2.9,1.2-7,1.2-12.4,2.3-5.5,2-2.8,1.5-2.3,2-2.7,1.7-11.4,3.7L287.8,45l-4.3,5.1L278,58.8l-1.3,2.1-1.4,3.7-.4,1.9.2.7-1.6.6-1.6,1.3-1.3,1.8-.5,1.8-.4,2.3-.9,1.4h-.1l-1,1.1-1,1.8.7,1.4.4,1.2v1l-.5,1L266,85.7l-3.5,7-.7,2.6-.2.8-2.2,1.1-.5,1.1-1.2,3.6-2.3,2.3-1.7,2.3.7,3.4-4.5-.9-3.5,1-2.8,2.1-2.6,2.7-.8,1.5-.7,1.6-1.2,1.3-4.2,1.3-.9,1.6-1,3.9-3.7,6.4-1.3,3.5-.6,4-1.1,2.5-4.5,5-8.2,9.1-2.1,3.4-1.7,6.2-5.8,9.9-1.7,7.7-1.4,3.9-2,1.7-.4,2.1-.4.4-7,8.2-1.7,1.6-.6,1.7-.3,6.3-.8,1.8-3.1,2.5-.8,1.7-.3,1.9-1,.9-1.4.6-1.5,1-1.8,2-1.6,2.9-3.6,10-2.5,4.8-1.7,4.8-1.3,1.7-4.3,4.2-.8,1.8-1,4.4-.4.9-.6,1-3.4,2.6-.5,1-.6,1.7-3.8,5-.8,1.9-1.5,5.4-.7,6.2-2.7,4.7-1.8,6.1-.4,7.6v10.1l-2.8,3.2v5.4l5.3-.3-2.5,3.2-.6,1.6-1,1.3-.3,1,1.9,1v1.2l-1.2,2.2,2.6,5,2.2,6.4h-3.3l-2.2.2-1.6,3.5v2H141l1.1.3,1.4-1,.5,1.9-.9-.2-2,.8-2.4.2-.9,2.5,2.3,1.6-1.6.4-1,1-2.1,5.6-.3,1.4.3,1.4-1.4,1.6-.8,2.3-.6,1.8.8,2,.5,2.4-.8,1.6-1.7.6-1.5.8-.4,2.5,1.7,2,2.6,2.3.5,1.6h-4.8v1.3l5.7,1.4.9,1-.6,1.8-1.9.6-2.3.3-1.8,1L129,394l-.4,2.1.5,2.2,1.8,1.5,1.7-.4,1.1-1.8,1.4-1.3,2.5,1.1.6,1.5-.4,4.4.9,1.3h2l1.1-1.6.7-2.1.7-1.2,3.9.6.7,3.2-1.7,3.8-2.9,2.1,2.4,2.4,1.1,2.2.6,3.9,1.3,8.5.5,1.1,1.8,3.1.3,1.4.8.8.8.6.4.8-.2,1.5-1,2.2v1.8l.6,2.8,2.9,6.3,3,4.7,1.6,3.5,1,3.6-.7,2.6L159,466l1,2.9,2.2,2.6,5.6,5.2,3.2,3.7,1.1,2,1.3,2.5.9,4.5-.4,1.1,8.1,6.3h1.3l1.2-.4h1l1.5.7h.3l1.3.9,3,2.6,2.8,1.9,6.2,3,2.7,1.7.4.9.6,2.3.7.4.7.2,2,1.2,5,4,1.2,1.7,2.7,6.1,3.4,4.3,1.1,1.7,12.3,32-.4,1.9-1.5,2.2-.3,1.9v6.7l-.3,2v1.2l.3,1.6,3.4,5.6-.8,4.4v1.4l2.3,1.9,2.1.6,1.4-1.5.2-4.1,4.9,1.2,4.9,2.2,4.2,3.2,2.8,4.2.2-3.6-.9-5.7v-5.2l2.5-2.3,2.1-1.5,1.5-3.7,1-4.5-.5-31.9-.2-9.1,1-9.9.9-3.5,5.9-10.4L273,497l1.2-7.6,2-3.7,5-6.2,1.6-3.1,3.2-8.3,1.3-1.7,1.7-.9,6.7-7.3,9.9-6.7,2.9-2.7,2.9-3.8,1.4-2.1.7-2v-1.7l-.4-3.9.3-1.6,2.1-2.4,8.6-7.3.8-1.7,6.3-9.1,1.3-3.6,1.8-8.1,3-5.2,1-3.6.7-1.4,1.3-1.4,2.9-2.1,1.3-1.3,3-6.2.6-6V368l.8-7,1.3-3.8,1.7-3,4.3-5.8,1.4-3,2.8-16.4,6.9-39.6,2.9-6,5-24.8,3.9-10.5,2-10.1.2-3.9.5-2.2,2.3-3.5.6-2.3v-2l-.5-.8-.8-.7-1-1.3-1.1-3.3v-2.9l.9-2.7,4.6-6.7,1.8-7.6,1.7-3.7,1.6-1.5,4.1-3.1.5-.9-.4-1.3.9-1.3,2.8-2.2,3.9-5.4,3.6-3.5.9-1.5V173l-.5-.9-.5-.9-.4-.4-.2-.2-.6-1,.3-.9.6-.8.4-1,.3-3.9.5-2,.8-1.4.7-1.6-.3-4.4.2-1.9,4.3-5,3.9-2.2,1.5-1.5-.3-1.7-1.1-1.7-.5-1.8.3-1.6,3.7-2.1.5-3.5-.8-4-1.7-3.1,1.2-.8,1.6-.5,1.9-.2,2,.2v-1.1l-4.7-.9-4-2.5-2.2-3.8v-5l.9-2.5V104l-2-9.6-.2-4.6.3-4.7,1-4.8,1.4-4.1,1.9-3,11.5-14.1,3.4-2.9,7.4-3.7,5.4-2.6Zm-140,157.5a6.1,6.1,0,0,1,6.2,6h0a6,6,0,0,1-5.9,6.1H305a6.1,6.1,0,0,1-.2-12.2Zm-38.5,12.3a6,6,0,0,1-6-6h0a6.1,6.1,0,1,1,6.1,6.1Zm35.8,20.1h-.2c-3.8,5.6-8.6,8-16.2,8s-12.4-2.4-16.2-8a4.2,4.2,0,1,1,7-4.7c1.9,2.8,3.9,4.3,9.3,4.3s7.4-1.5,9.3-4.3a4.2,4.2,0,1,1,7,4.7Zm31.7,39.6a17.3,17.3,0,0,1-4.3,6.5c-3,3.1-6.7,5.5-10.3,7.9a.7.7,0,0,1-.9,0c-4.3-3-8.8-5.9-12.1-10-1.6-2-2.9-4.2-2.9-6.8a7.5,7.5,0,0,1,6.1-6.8,9.8,9.8,0,0,1,9.4,4.1c2.2-2.9,5.1-4.9,8.8-4.2S335.3,273.2,333.8,277.8Z"/></svg>