<svg id="圖層_1" data-name="圖層 1" xmlns="http://www.w3.org/2000/svg" viewBox="0 0 190 185"><defs><style>.cls-1{fill:#acc8e4;}.cls-2{fill:#008129;}.cls-3{fill:#be0036;}.cls-4{fill:#3e5bc1;}.cls-5{fill:#6179cd;}.cls-6{fill:#fff;}.cls-7{fill:#464646;}.cls-8{fill:#ffbe33;}.cls-9{fill:#cf1400;}.cls-10{fill:#d82c02;}.cls-11{fill:#e44124;}</style></defs><title>四季svg</title><path class="cls-1" d="M76.8,108.3q7,1.6,14.3,3.7l14.3,4.8,13.4,5.4q6.2,2.9,11.2,5.5l-12,17.3q-4.6-2.7-10.9-5.7t-13.4-5.9l-14.5-5.2Q72,125.8,65.2,124l11.6-15.7A179.4,179.4,0,0,1,59.2,116a305.8,305.8,0,0,1-41.6,12.9,89.4,89.4,0,0,0-4.6-10.4A52.2,52.2,0,0,0,6.7,109a259.5,259.5,0,0,0,37-9.8A201.7,201.7,0,0,0,77.4,83.8,186.3,186.3,0,0,1,54.7,63.3,201.3,201.3,0,0,1,27.6,84.6L23.8,81,19,76.5l-4.8-4.3L9.9,68.9A151.4,151.4,0,0,0,27.6,57.6,152,152,0,0,0,44.2,43.9,167.9,167.9,0,0,0,58.8,28,130,130,0,0,0,70.4,11l21.1,7.5-2.9,4.6-2.9,4.5h48.4l3.9-1.1,15.2,8.7a132.5,132.5,0,0,1-15.9,25.9,151.8,151.8,0,0,1-21.2,21.6,224.6,224.6,0,0,0,31.1,12.3,256.8,256.8,0,0,0,34.3,8.2,48.1,48.1,0,0,0-3.7,4.3q-2.1,2.7-3.9,5.4t-3.6,5.5l-2.9,5Q128.2,115.1,97,97.1,87.2,103.1,76.8,108.3Zm50,48.9q12.3,3.2,22.3,6.2L136.8,184q-9.3-3.2-21.4-6.6T89.7,171q-13.6-3-27.5-5.7t-27-4.3l12.9-18.7q12.7,1.4,26.2,3.7t27,5.4Q114.5,154.2,126.8,157.2ZM109.3,59.9a105.1,105.1,0,0,0,11.1-13H70.6l-1.4,1.8a104.7,104.7,0,0,0,12.1,12A127,127,0,0,0,96.1,71.3,123.2,123.2,0,0,0,109.3,59.9Z"/><path class="cls-2" d="M69.4,36.9a7.4,7.4,0,0,1-.4-7.3.2.2,0,0,0-.3-.3c-1.8,1-4.3,1.7-5.1-3.1a.2.2,0,0,0-.3-.1c-1.4,1.2-4.9,2.9-7.2-3.8a.2.2,0,0,0-.3-.1,5.1,5.1,0,0,1-5.7.7.2.2,0,0,0-.2.3c1.6,2.2,2,2.9,1.3,5.6a.2.2,0,0,0,.2.3c2.5-.2,7.3.9,5.6,5.9a.2.2,0,0,0,.2.3c2.5-.6,5.3-.6,4.5,3.5a.2.2,0,0,0,.3.2c2.5-1.7,2.9-2.5,7.2-1.7A.2.2,0,0,0,69.4,36.9Z"/><path class="cls-2" d="M75.6,36.8a7.4,7.4,0,0,0,.4-7.3.2.2,0,0,1,.3-.3c1.8,1,4.3,1.7,5.1-3.1a.2.2,0,0,1,.3-.1c1.4,1.2,4.9,2.9,7.2-3.8a.2.2,0,0,1,.3-.1,5.1,5.1,0,0,0,5.7.7.2.2,0,0,1,.2.3c-1.6,2.2-2,2.9-1.3,5.6a.2.2,0,0,1-.2.3c-2.5-.2-7.3.9-5.6,5.9a.2.2,0,0,1-.2.3c-2.5-.6-5.3-.6-4.5,3.5a.2.2,0,0,1-.3.2c-2.5-1.7-2.9-2.5-7.2-1.7A.2.2,0,0,1,75.6,36.8Z"/><circle class="cls-3" cx="72.5" cy="36" r="2.4"/><circle class="cls-3" cx="69.8" cy="40.6" r="2.4"/><circle class="cls-3" cx="75.2" cy="40.6" r="2.4"/><path class="cls-4" d="M183,76.8l-1.8-1.1,1.6-.4a.8.8,0,0,0,.5-.9l-.2-.7a.7.7,0,0,0-.9-.5l-3.7,1-3.4-2,3.4-2,3.7,1a.7.7,0,0,0,.9-.5l.2-.7a.8.8,0,0,0-.5-.9l-1.6-.4,1.8-1.1a.8.8,0,0,0,.3-1l-.4-.7a.7.7,0,0,0-1-.3L180,66.7l.4-1.6a.8.8,0,0,0-.5-.9l-.7-.2a.7.7,0,0,0-.9.5l-1,3.8-3.4,2v-4l2.7-2.8a.8.8,0,0,0,0-1.1l-.5-.5a.7.7,0,0,0-1,0l-1.2,1.2V60.9a.7.7,0,0,0-.7-.8h-.7a.7.7,0,0,0-.7.8v2.2l-1.2-1.2a.7.7,0,0,0-1,0l-.5.5a.8.8,0,0,0,0,1.1l2.7,2.8v4l-3.4-2-1-3.8a.7.7,0,0,0-.9-.5l-.7.2a.8.8,0,0,0-.5.9l.4,1.6-1.8-1.1a.7.7,0,0,0-1,.3l-.4.7a.8.8,0,0,0,.3,1l1.8,1.1-1.6.4a.8.8,0,0,0-.5.9l.2.7a.7.7,0,0,0,.9.5l3.7-1,3.4,2-3.4,2-3.7-1a.7.7,0,0,0-.9.5l-.2.7a.8.8,0,0,0,.5.9l1.6.4-1.8,1.1a.8.8,0,0,0-.3,1l.4.7a.7.7,0,0,0,1,.3l1.8-1.1-.4,1.6a.8.8,0,0,0,.5.9l.7.2a.7.7,0,0,0,.9-.5l1-3.8,3.4-2v4L169,80.9a.8.8,0,0,0,0,1.1l.5.5a.7.7,0,0,0,1,0l1.2-1.2v2.2a.7.7,0,0,0,.7.8h.7a.7.7,0,0,0,.7-.8V81.3l1.2,1.2a.7.7,0,0,0,1,0l.5-.5a.8.8,0,0,0,0-1.1l-2.7-2.8v-4l3.4,2,1,3.8a.7.7,0,0,0,.9.5l.7-.2a.8.8,0,0,0,.5-.9l-.4-1.6,1.8,1.1a.7.7,0,0,0,1-.3l.4-.7a.7.7,0,0,0-.3-1Z"/><path class="cls-5" d="M30,133.8l-1.7-1,1.5-.4a.7.7,0,0,0,.5-.8l-.2-.7a.7.7,0,0,0-.8-.5l-3.4.9-3.1-1.8,3.1-1.8,3.4.9a.7.7,0,0,0,.8-.5l.2-.7a.7.7,0,0,0-.5-.8l-1.5-.4,1.7-1a.7.7,0,0,0,.2-.9l-.3-.6a.7.7,0,0,0-.9-.3l-1.7,1,.4-1.5a.7.7,0,0,0-.5-.8l-.6-.2a.7.7,0,0,0-.8.5l-.9,3.5-3.1,1.8v-3.6l2.5-2.5a.7.7,0,0,0,0-1l-.5-.5a.7.7,0,0,0-.9,0l-1.1,1.1v-2a.7.7,0,0,0-.7-.7h-.7a.7.7,0,0,0-.7.7v2l-1.1-1.1a.7.7,0,0,0-.9,0l-.5.5a.7.7,0,0,0,0,1l2.5,2.5v3.6L16.7,126l-.9-3.5a.7.7,0,0,0-.8-.5l-.6.2a.7.7,0,0,0-.5.8l.4,1.5-1.7-1a.7.7,0,0,0-.9.3l-.3.6a.7.7,0,0,0,.2.9l1.7,1-1.5.4a.7.7,0,0,0-.5.8l.2.7a.7.7,0,0,0,.8.5l3.4-.9,3.1,1.8-3.1,1.8-3.4-.9a.7.7,0,0,0-.8.5l-.2.7a.7.7,0,0,0,.5.8l1.5.4-1.7,1a.7.7,0,0,0-.2.9l.3.6a.7.7,0,0,0,.9.3l1.7-1-.4,1.5a.7.7,0,0,0,.5.8l.6.2a.7.7,0,0,0,.8-.5l.9-3.5,3.1-1.8V135l-2.5,2.5a.7.7,0,0,0,0,1l.5.5a.7.7,0,0,0,.9,0l1.1-1.1v2a.7.7,0,0,0,.7.7h.7a.7.7,0,0,0,.7-.7v-2l1.1,1.1a.7.7,0,0,0,.9,0l.5-.5a.7.7,0,0,0,0-1L21.8,135v-3.6l3.1,1.8.9,3.5a.7.7,0,0,0,.8.5l.6-.2a.7.7,0,0,0,.5-.8l-.4-1.5,1.7,1a.7.7,0,0,0,.9-.3l.3-.6a.7.7,0,0,0-.2-.9Z"/><ellipse class="cls-6" cx="139.8" cy="164.9" rx="20.5" ry="18.9"/><circle class="cls-6" cx="142.4" cy="138.3" r="12.8"/><circle class="cls-7" cx="146.3" cy="135.3" r="1.3"/><circle class="cls-7" cx="135.8" cy="133.6" r="1.3"/><path class="cls-8" d="M139.4,138.3c0,4.2-13.4.6-13.4,0S139.4,134.7,139.4,138.3Z"/><polygon class="cls-9" points="139.8 148.3 131.9 165.7 142.4 168.1 145 148.3 139.8 148.3"/><polygon class="cls-10" points="142.4 149.7 140.5 162.4 147.6 162.4 147.6 149.7 142.4 149.7"/><polygon class="cls-11" points="128.4 148.5 130.4 143.6 153.2 146.1 153.2 153.1 128.4 148.5"/><path class="cls-6" d="M126.6,33.7c1.2.9,1.7,2.6,2.9,3.5s4.4.6,6.7.7,4.8,1.8,7.2,2.8a17.3,17.3,0,0,0,9,1.2,4.9,4.9,0,0,0,2.4-.8c1.5-1.1,1.4-3.5.4-5.1a11.3,11.3,0,0,0-4.4-3.4l-7.6-4.1a27.9,27.9,0,0,0-8-3.3,27.9,27.9,0,0,0-6.8-.1c-3.5.2-11.2-1-10.6,4.6S123.4,32.2,126.6,33.7Z"/><path class="cls-6" d="M51.1,98.4c1.4-.1,2.5.7,3.9.7s3.9-2,5.9-3.2,4.8-1.5,7.2-2.2a22.4,22.4,0,0,0,8-4.1,5.9,5.9,0,0,0,1.6-1.8A2.5,2.5,0,0,0,76,84.4a11.4,11.4,0,0,0-5.1.2l-8,1.5a33.4,33.4,0,0,0-8.1,2.3A36.7,36.7,0,0,0,49,92c-2.9,2.1-9.8,5.5-7,8.7S47.8,99.1,51.1,98.4Z"/></svg>