<?xml version="1.0" encoding="utf-8"?>
<!-- Generator: Adobe Illustrator 21.1.0, SVG Export Plug-In . SVG Version: 6.00 Build 0)  -->
<svg version="1.1" id="圖層_1" xmlns="http://www.w3.org/2000/svg" xmlns:xlink="http://www.w3.org/1999/xlink" x="0px" y="0px"
	 viewBox="0 0 200 200" style="enable-background:new 0 0 200 200;" xml:space="preserve">
<style type="text/css">
	.st0{fill:#96C845;}
	.st1{fill:#6FB300;}
	.st2{fill:#6B4300;}
	.st3{fill:#6B1C00;}
	.st4{fill:#FFA28A;}
	.st5{opacity:0.4;fill:#FFB691;}
	.st6{fill:#FF937C;}
	.st7{opacity:0.1;}
	.st8{opacity:0.1;fill:#F89775;}
	.st9{opacity:0.1;fill:#FFFFFF;}
	.st10{fill:#295629;}
	.st11{opacity:0.2;fill:#295629;}
	.st12{fill:#97C020;}
	.st13{fill:#B7D24E;}
	.st14{fill:#C8DA6D;}
	.st15{fill:#834B00;}
</style>
<g>
	<path class="st10" d="M84.7,45.7c0,0-5.7-44.6,25.9-39.3c39.3,6.7,40,46.6,40.7,52.4c4.7,39.8,13.9,33.7,18.7,54.8
		c4.4,19.5,0.2,47.4-16.2,63.5c-20.1,19.7-54.9,21.4-81.9,10.9S40.1,137,44,118.7c3.1-14.2,10.9-28.1,20.9-46
		C70.3,63.1,80.6,59.8,84.7,45.7z"/>
	<path class="st11" d="M141.1,65.8c0-5.1,2.7-36.4-17-50.5c14.4,16.4,12,36.3,12.2,53.1c0.1,12.6,5.3,29.8,8.1,41.2
		c2.8,11.4,10.6,45.7-9.5,65.5c-14,13.8-33,18.5-52.4,16.5c10.1,2.6,20.8,3.6,31.1,2.7c9.7-2.5,18.7-7.3,26.2-14.7
		c20.1-19.8,12.3-54,9.5-65.5C146.4,102.5,141.1,71.6,141.1,65.8z"/>
	<path class="st12" d="M71.1,39c0,0,5.8-38.9,37.3-32.8s27.9,56.3,27.9,62.1s5.3,29.8,8.1,41.2c2.8,11.4,10.6,45.7-9.5,65.5
		s-50.4,20.9-77.4,10.3c-27-10.6-31.8-51-27.9-69.4c3.1-14.2,6.6-21.4,17-39C55.6,61.4,66.9,53.1,71.1,39z"/>
	<path class="st13" d="M73.5,45c0,0,5.4-39.7,34.2-34.1s24.5,55.6,24.5,60.9s4.8,26.3,7.4,36.7c2.6,10.5,9.7,43.9-8.7,62
		S84.8,190.7,60,181s-28.1-47.7-24.5-64.6c2.8-13,6.1-20.6,15.6-36.7C59.4,65.6,69.7,57.9,73.5,45z"/>
	<path class="st14" d="M125.8,131.9c-4.4-34-14.3-60.6-35.2-60c-12.2,0.3-28.3,27.9-36.2,43c-2,3-3.7,6.2-4.8,9.6c0,0,0,0,0,0
		s0,0,0,0c-1.8,5.5-2.5,11.5-1.7,17.6c2.8,21.5,22.5,36.6,44,33.8C113.5,173.1,128.7,153.4,125.8,131.9z"/>
	<path class="st4" d="M117.9,130.3c-3.5-27.1-11.4-48.3-28-47.8c-9.7,0.3-22.5,22.2-28.8,34.2c-1.6,2.4-2.9,4.9-3.8,7.7c0,0,0,0,0,0
		s0,0,0,0c-1.5,4.4-2,9.1-1.4,14c2.2,17.1,17.9,29.2,35.1,26.9C108.1,163.1,120.2,147.4,117.9,130.3z"/>
	<path class="st15" d="M117.9,130.3c-3.5-27.1-11.4-48.3-28-47.8c-9.7,0.3-22.5,22.2-28.8,34.2c-1.6,2.4-2.9,4.9-3.8,7.7
		c0,0,0,0,0,0s0,0,0,0c-1.5,4.4-2,9.1-1.4,14c2.2,17.1,17.9,29.2,35.1,26.9C108.1,163.1,120.2,147.4,117.9,130.3z"/>
	<ellipse transform="matrix(0.5 -0.866 0.866 0.5 -45.0981 121.2875)" class="st9" cx="82.5" cy="99.7" rx="8" ry="3.8"/>
</g>
</svg>
