<svg xmlns="http://www.w3.org/2000/svg" viewBox="0 0 200 200"><defs><style>.cls-1{isolation:isolate;}.cls-2{fill:#008442;}.cls-3{fill:#5db238;}.cls-4{fill:#7fbe3e;}.cls-5,.cls-6{fill:#ffe34f;}.cls-6,.cls-7{opacity:0.5;mix-blend-mode:multiply;}</style></defs><title>lemon</title><g class="cls-1"><g id="圖層_1" data-name="圖層 1"><path class="cls-2" d="M56.8,39.1,41.6,20.5s-5.2.4-5.9,2.4,4.2.8,4.2.8L55.2,40.9Z"/><path class="cls-3" d="M61.6,0,54.9,38S36.9,16.7,61.6,0Z"/><path class="cls-4" d="M61.6,0c1.6,1.1,22,20.2-6.7,38Z"/><path class="cls-5" d="M67,39.6c-3.3-2.3-7.5-4.9-12.3-1.4s-8.3,10-6.6,14.6c0,0-41.7,35.7-13.7,91.7s87.3,51.6,98,51.2c1.8,2,6.1,6.7,14.1,3l2.1-1.2c6.6-4.3,9.8-12.9,6.4-20.3,4.4-4.8,28.3-30.4,17.3-68.6S125.9,26.7,67,39.6Z"/><path class="cls-6" d="M48.1,52.8S6.4,88.5,34.5,144.4s87.3,51.6,98,51.2c1.8,2,6.1,6.7,14.1,3l2.1-1.2L54.7,38.1C49.9,41.6,46.5,48.1,48.1,52.8Z"/><g class="cls-7"><path class="cls-5" d="M39.7,93.3c.5,2.8-.1,5.3-1.4,5.6s-2.8-1.9-3.4-4.7.1-5.3,1.4-5.6S39.1,90.4,39.7,93.3Z"/><path class="cls-5" d="M47.5,98.1c.4,2.1-.1,3.9-1,4.1s-2.1-1.4-2.5-3.5.1-3.9,1-4.1S47.1,96,47.5,98.1Z"/><path class="cls-5" d="M46.4,107.8c.4,2.1-.1,3.9-1,4.1s-2.1-1.4-2.5-3.5.1-3.9,1-4.1S46,105.7,46.4,107.8Z"/><path class="cls-5" d="M43,117.1c.3,1.4,0,2.6-.7,2.7s-1.3-.9-1.6-2.3,0-2.6.7-2.7S42.7,115.8,43,117.1Z"/><path class="cls-5" d="M38.9,107.9c.6,2.9-.1,5.5-1.4,5.7s-2.9-1.9-3.5-4.9.1-5.5,1.4-5.7S38.4,105,38.9,107.9Z"/></g><g class="cls-7"><path class="cls-5" d="M156.2,149.5c.5-2.8,2.1-4.9,3.4-4.6s1.9,2.8,1.4,5.6-2.1,4.9-3.4,4.6S155.7,152.4,156.2,149.5Z"/><path class="cls-5" d="M150.7,142.1c.4-2.1,1.5-3.6,2.5-3.4s1.4,2.1,1,4.2-1.5,3.6-2.5,3.4S150.3,144.2,150.7,142.1Z"/><path class="cls-5" d="M155.3,133.6c.4-2.1,1.5-3.6,2.5-3.4s1.4,2.1,1,4.2-1.5,3.6-2.5,3.4S154.9,135.7,155.3,133.6Z"/><path class="cls-5" d="M162,126.3c.3-1.4,1-2.3,1.6-2.2s.9,1.3.7,2.7-1,2.3-1.6,2.2S161.7,127.6,162,126.3Z"/><path class="cls-5" d="M162.4,136.3c.6-2.9,2.1-5,3.5-4.8s2,2.9,1.4,5.8-2.1,5-3.5,4.8S161.8,139.2,162.4,136.3Z"/></g></g></g></svg>