<?xml version="1.0" encoding="utf-8"?>
<!-- Generator: Adobe Illustrator 21.1.0, SVG Export Plug-In . SVG Version: 6.00 Build 0)  -->
<svg version="1.1" id="圖層_1" xmlns="http://www.w3.org/2000/svg" xmlns:xlink="http://www.w3.org/1999/xlink" x="0px" y="0px"
	 viewBox="0 0 200 200" style="enable-background:new 0 0 200 200;" xml:space="preserve">
<style type="text/css">
	.st0{fill:#4EAB26;}
	.st1{fill:#39A10B;}
	.st2{fill:#7FBE3E;}
	.st3{fill:#5DB238;}
	.st4{fill:#FFC82A;}
	.st5{opacity:0.15;fill:#FFB82A;}
	.st6{opacity:0.1;fill:#FFFFFF;}
	.st7{opacity:5.000000e-02;}
	.st8{fill:#FFB115;}
	.st9{opacity:0.15;fill:#FFAA00;}
</style>
<g>
	<g>
		<path class="st0" d="M117.5,71.3c0,0,19-49.6,69-46.6c-6.2,9.1-11.9,19.2-13,26.3s-13,41.8-28.8,44.8c-15.8,3-34.5,2.5-34.5,2.5
			L117.5,71.3z"/>
		<path class="st1" d="M152.9,52.5c12.9-20,27.6-25.8,33.3-27.4c0.1-0.1,0.2-0.3,0.3-0.4c-50.1-3-69,46.6-69,46.6l-7.3,26.9
			C122.8,87.2,142.4,68.9,152.9,52.5z"/>
		<path class="st0" d="M89.6,81.1c0,0-37-28.8-84.3,9.4c11,2.5,30.2,10.1,37.7,17.1c7.5,7.1,36.6,12.3,46.6,10s16-16.9,16-16.9
			L89.6,81.1z"/>
		<path class="st2" d="M80.5,0c0,0,0,11.5-3.9,19.6c-3.9,8.1-15.8,49.1,23.5,76.2c9.1,3.3,18.6-5.7,18.6-5.7s12-30.2-2.1-52.5
			C102.4,15.4,98.2,17,92.1,11.8C85.9,6.7,81.1,2.7,80.5,0z"/>
		<path class="st3" d="M76.6,19.6c-3.9,8.1-15.8,49.1,23.5,76.2c3.9,1.4,7.9,0.6,11.1-0.9c-5.2-28.3-26.5-83.7-30.8-94.6
			C80.4,2.2,80.1,12.3,76.6,19.6z"/>
		<path class="st1" d="M5.4,90.4C5.3,90.5,5.3,90.5,5.4,90.4C16.2,93,35.4,100.6,43,107.6c7.5,7.1,36.6,12.3,46.6,10
			c5.3-1.2,9.4-5.8,12.1-9.8c-10.2-4.5-23.8-9.4-36.5-13.4C47,88.7,17.5,89.7,5.4,90.4z"/>
	</g>
	<g>
		<g>
			<path class="st4" d="M108.4,96c0,0-9.7,4.9-11.8,19.8s0.5,41.3,9.7,50.8c9.2,9.5,38.2,37.4,72.8,13.2s2.3-70.8-6.9-77.9
				C162.9,94.8,132.8,79.7,108.4,96z"/>
			<path class="st5" d="M97.8,146.7c1.7,8.3,4.4,15.7,8.4,19.9c9.2,9.5,38.2,37.4,72.8,13.2c15-10.5,17.4-25.2,14.6-39.1
				c-3.3,2.9-7.3,6.6-12.1,11.4C154.1,179.4,113.1,156.8,97.8,146.7z"/>
			<g>
				<path class="st3" d="M175.8,178.6c0,0-5.1-0.2-3.9-4.1c1.1-3.9,3.2-4.1,4.2-4.3c-0.4-2.8-0.3-5.7,1.5-5.8c1.8-0.1,5.5,2,4.8,4.3
					c1.5-1.9,4.3-1.3,4.9,1.2c0.6,2.5-0.3,4.1-2.1,4.5c0.8,1.7,1.7,4.1,0,5.9s-3.7-1.6-3.7-1.6s0.2,3.1-2.1,3
					C177,181.5,176.2,180.2,175.8,178.6z"/>
				
					<ellipse transform="matrix(3.512925e-02 -0.9994 0.9994 3.512925e-02 0.6579 348.331)" class="st1" cx="180.7" cy="173.8" rx="2.7" ry="2.7"/>
			</g>
			<path class="st6" d="M132.6,110.4c0,0-2.1-7.2,3.3-11.2s12.1-3.2,15.2,0.4c3.1,3.6,6.4,12.3-1.8,16.6
				C141.2,120.4,135.8,118.7,132.6,110.4z"/>
			<path class="st6" d="M142.4,133.4c0,0-2.8-0.6-3.1-3.2s1.2-4.6,3-5c1.8-0.4,5.3,0.2,5.2,3.7C147.3,132.4,145.8,133.9,142.4,133.4
				z"/>
			<path class="st7" d="M133.3,186.3c12.9-13.6,19.2-34,19.4-40.7c0.3-11.6-5-44.9-32.6-55.2c0,0-0.1,0-0.2-0.1
				c-4.3,1.2-8.5,3-12.6,5.7c0,0-9.7,4.9-11.8,19.8s0.5,41.3,9.7,50.8C110,171.5,120,181.3,133.3,186.3z"/>
		</g>
		<g>
			<path class="st8" d="M112.2,91.4c0,0-9.6-5-22.9,2c-13.3,7-33.2,24.6-35.6,37.6c-2.3,13-8,52.8,31.9,66.8
				c39.9,14,58.8-39.5,59.2-51.2C145,134.9,139.7,101.7,112.2,91.4z"/>
			<path class="st9" d="M64.9,112.4c-5.8,6.2-10.2,12.8-11.2,18.5c-2.3,13-8,52.8,31.9,66.8c17.3,6.1,30.6-0.6,40.3-11
				c-4.3-1-9.6-2-16.3-3.2C71.2,177.2,65.6,130.7,64.9,112.4z"/>
			<path class="st3" d="M84.7,177.7c0,0,0-6.3,4.8-5c4.8,1.2,5.2,3.8,5.4,5c3.4-0.6,7.1-0.6,7.3,1.6c0.2,2.2-2.2,6.9-5,6.1
				c2.5,1.8,1.8,5.2-1.2,6.1c-3,0.8-5-0.2-5.6-2.4c-2,1-5,2.2-7.3,0.2c-2.2-2,1.8-4.6,1.8-4.6S81,184.8,81,182
				S82.6,178.3,84.7,177.7z"/>
			<circle class="st1" cx="90.7" cy="183.6" r="3.4"/>
			<path class="st6" d="M106.2,106.9c0,0,4.6-5.9,11.1-3.9s9.7,8,8.6,12.6c-1.1,4.6-6.2,12.3-14.5,8.2S101.3,114.3,106.2,106.9z"/>
			<path class="st6" d="M96.5,137.5c0,0-1.7-4,1.2-6.7c2.9-2.7,6.8-2.6,8.9-0.8c2,1.9,4.5,6.7,0.1,9.7S98.9,142.1,96.5,137.5z"/>
		</g>
	</g>
</g>
</svg>
