<svg xmlns="http://www.w3.org/2000/svg" viewBox="0 0 200 200"><defs><style>.cls-1{isolation:isolate;}.cls-2{fill:#f52743;}.cls-3{fill:#d21730;}.cls-4{fill:#ab122c;}.cls-5{fill:#fee5d8;}.cls-6{fill:#f5dccf;}.cls-7{fill:#fdede3;}.cls-8{fill:#7f3718;}.cls-9{fill:#b42743;opacity:0.15;mix-blend-mode:multiply;}</style></defs><title>工作區域 1</title><g class="cls-1"><g id="圖層_1" data-name="圖層 1"><path class="cls-2" d="M46.6,43.2C44,47.1,43.2,55.9,66,61.6c9,2.2,104,39.2,105.9,35.7s1.1-6.6,1-9c5.3-7.1,3.5-10.1,2.3-13.4,4-3.5,1.2-9.7-.9-11.1,4.8-6,1.8-10.7.3-12.7,3.5-5.4-1.4-11.3-4.6-13.4.7-8.1-3.3-7.5-8-9.5,1.5-4.9-3.7-7.1-6.3-8.1.2-4.8-4.5-5.8-9.1-6.5.8-4.9-6.3-5.6-8-4.2-1.8-4.3-6.3-4.4-8.7-3.4-.4-2.2-6-6.5-8.7-2.4-2.9-4.3-8-5-11.1-1.3-2.7-1-9.2-.4-11.5,4.2-4.7-1.7-6-3.8-11,2.6-3.8-.6-8.6-1.2-9.7,5-2.4.4-7.5-.4-8,7.2-2.5-.4-9.2,1-8.6,6.3-3.1,1.6-5.8,1.6-6.5,8.6C51.6,35.6,48.9,39.9,46.6,43.2Z"/><path class="cls-3" d="M171.4,100.4c-3.9,9.6-35.7,5.7-71-8.8S39.7,57.7,43.6,48.2,83.7,43.3,121,59.7C155.9,75.1,175.4,90.8,171.4,100.4Z"/><path class="cls-4" d="M166.3,98.9c-1.3,3.1-5.9,4.5-12.8,4.5a77.8,77.8,0,0,1-11.9-1.1c-11.4-1.8-25.6-6-40.5-12.1C79.2,81.3,61.5,70.4,53.2,61.6c-4.1-4.3-5.9-8.2-4.8-11,2-5,14.3-5.4,31-1.9A210.3,210.3,0,0,1,119.5,62c7.4,3.2,14,6.5,19.8,9.7l4.4,2.5h0C160.3,83.9,168.7,92.8,166.3,98.9Z"/><path class="cls-5" d="M150.9,137c-1.8,3.4-5.5,6.3-10.5,8.8l-1.7.8-1.8.8-1.9.7-2,.7-2.1.7-3.2.9-3.4.9-4.7,1-2.4.5-2.5.4-1.2.2-6.4.9-5.2.5c-15.2,1.3-31.2.8-44.3-1.8l-2.1-.4-2-.5-1-.3-1.9-.5-2.8-.9-3.3-1.2A29.6,29.6,0,0,1,34.5,143l-.3-.3-.3-.4-.7-.8-.7-1.1-.3-.5-.5-1.1-.4-1.2-.2-.6h0c-1.5-6.2-12.7-12.9.2-27.4,0,0,1.6-29.6,22-48A53.9,53.9,0,0,1,79.4,48.7,210.3,210.3,0,0,1,119.5,62c7.4,3.2,14,6.5,19.8,9.7l4.4,2.5-.2-.3.2.3,1.4,2.6.7,1.3.8,1.8.8,1.8.7,1.7,1.2,3.4.5,1.6.6,1.8.4,1.4.8,3.1.3,1.4.3,1.4.2.9v.7l.4,2,.4,2.3.2.9.2,1.6.2,1.5v.7a8.2,8.2,0,0,0,.3,1.5C156.1,113.3,163.5,113.9,150.9,137Z"/><path class="cls-6" d="M150.9,137c-1.8,3.4-5.5,6.3-10.5,8.8l-1.7.8-1.8.8-1.9.7-2,.7-2.1.7-3.2.9-3.4.9-4.7,1-2.4.5-2.5.4-1.2.2-6.4.9-5.2.5c-15.2,1.3-31.2.8-44.3-1.8l-2.1-.4-2-.5-1-.3-1.9-.5-2.8-.9-3.3-1.2A29.6,29.6,0,0,1,34.5,143l-.3-.3-.3-.4-.7-.8-.7-1.1-.3-.5-.5-1.1-.4-1.2-.2-.6c76.8,2,97-13.2,106.2-24.5,2.1-2.6,3.5-6.3,4.3-10.3a60.1,60.1,0,0,0,.7-18.7,101.2,101.2,0,0,0-2.9-11.9l4.4,2.5,1.5,2.6.7,1.3.8,1.8.8,1.8.7,1.7,1.2,3.4.5,1.6.6,1.8.4,1.4.8,3.1.3,1.4.3,1.4.2.9v.7l.4,2,.4,2.3.2.9.2,1.6.2,1.5v.7a8.2,8.2,0,0,0,.3,1.5C156.1,113.3,163.5,113.9,150.9,137Z"/><path class="cls-7" d="M45.2,78.9S59.5,55.6,72.8,59.5,75.1,90.5,73,96s-11.9,32.5-26.8,24.6S37.6,92.8,45.2,78.9Z"/><path class="cls-3" d="M154.5,109.6s5.2,8-.9,13.2c-17,14.4-102.5,14.8-121.4,0-6.4-5-.9-13.2-.9-13.2-12.6,6.3-3.4,17.9-1.1,19.2,21.6,13.5,104,13.5,125.6,0C157.9,127.6,167.1,116,154.5,109.6Z"/><path class="cls-8" d="M90.2,194.7s-.4,4.5,0,4.8,11.1.8,11.9,0,0-7.8,0-7.8L90,190.5Z"/><path class="cls-2" d="M162.9,121.6c-.6-4.7-1.6-10.5-8.4-12a11.1,11.1,0,0,1,5.3,9.4c0,6.4-12,20-66.9,20s-66.9-13.6-66.9-20a11.1,11.1,0,0,1,5.3-9.4c-6.7,1.5-7.7,7.3-8.4,12s1.2,5.7,2.3,8.3c-2.9,11.7.8,10.4,3.4,13.5-2.8,5.5-.5,9.7,2.3,10.4-2.6,8.6,1.5,10.2,3.9,11.7-1.5,7.3,3.7,10.2,7.9,11.2,2.6,9.1,6.6,6.8,12.3,7,.5,6,6.8,6.2,10.1,6.2,1.8,5.4,7.1,4.4,12.3,3.2,1.1,5.7,8.9,3.4,10.2,1.1,3.7,3.9,8.5,2.2,10.7,0,1.3,2.3,9.1,4.5,10.2-1.1,5.2,1.1,10.5,2.1,12.3-3.2,3.2,0,9.6-.2,10.1-6.2,5.7-.2,9.7,2.1,12.3-7,4.2-1,9.4-3.9,7.9-11.2,2.4-1.5,6.5-3.1,3.9-11.7,2.8-.7,5-4.9,2.3-10.4,2.6-3.1,6.3-1.8,3.4-13.5C161.7,127.3,163.5,126.3,162.9,121.6Z"/><path class="cls-9" d="M162.9,121.6c-.6-4.7-1.6-10.5-8.4-12a11.1,11.1,0,0,1,5.3,9.4c0,4-4.7,10.8-21.6,15.4,2.3,24.7-9.5,57.4-93.9,46.3,2.6,4.3,6.1,2.8,10.7,2.9.5,6,6.8,6.2,10.1,6.2,1.8,5.4,7.1,4.4,12.3,3.2,1.1,5.7,8.9,3.4,10.2,1.1,3.7,3.9,8.5,2.2,10.7,0,1.3,2.3,9.1,4.5,10.2-1.1,5.2,1.1,10.5,2.1,12.3-3.2,3.2,0,9.6-.2,10.1-6.2,5.7-.2,9.7,2.1,12.3-7,4.2-1,9.4-3.9,7.9-11.2,2.4-1.5,6.5-3.1,3.9-11.7,2.8-.7,5-4.9,2.3-10.4,2.6-3.1,6.3-1.8,3.4-13.5C161.7,127.3,163.5,126.3,162.9,121.6Z"/><path class="cls-3" d="M68.8,147a10.2,10.2,0,0,0,2.7,1.5,7.9,7.9,0,0,0,2.9.5,9.7,9.7,0,0,0,2.9-.6l1.4-.6,1.4-.8h.1a.5.5,0,0,1,.6.9l-1.3,1.2-1.5.9a8.9,8.9,0,0,1-3.5,1,7.6,7.6,0,0,1-3.6-.8,7.3,7.3,0,0,1-2.8-2.3.5.5,0,0,1,.8-.7Z"/><path class="cls-3" d="M125.9,169.3a10.2,10.2,0,0,0,3,.6,7.9,7.9,0,0,0,2.9-.4,9.7,9.7,0,0,0,2.6-1.5l1.2-1,1.1-1.2h0a.5.5,0,0,1,.8.6l-.9,1.5a13.3,13.3,0,0,1-1.2,1.3,8.9,8.9,0,0,1-3.1,2,7.6,7.6,0,0,1-3.7.3,7.3,7.3,0,0,1-3.4-1.4.5.5,0,0,1,.5-.9Z"/><path class="cls-3" d="M92,150.6a10.2,10.2,0,0,0,2.7,1.5,7.9,7.9,0,0,0,2.9.5,9.7,9.7,0,0,0,2.9-.6l1.4-.6,1.4-.8h.1a.5.5,0,0,1,.6.9l-1.3,1.2-1.5.9a8.9,8.9,0,0,1-3.5,1,7.6,7.6,0,0,1-3.6-.8,7.3,7.3,0,0,1-2.8-2.3.5.5,0,0,1,.8-.7Z"/><path class="cls-3" d="M110.6,160.1a11.1,11.1,0,0,0,3.2,1.4,7.4,7.4,0,0,0,3.3,0,9.4,9.4,0,0,0,3.1-1.4l1.4-1.1,1.3-1.3h0a.5.5,0,0,1,.8.7l-1.1,1.6a16.5,16.5,0,0,1-1.4,1.4,9.2,9.2,0,0,1-3.7,1.9,7.8,7.8,0,0,1-4.2-.2,8.3,8.3,0,0,1-3.4-2.2.5.5,0,0,1,.7-.8Z"/><path class="cls-3" d="M88,165.9a9.3,9.3,0,0,0,2.3,1.2,6.7,6.7,0,0,0,2.5.4,8.5,8.5,0,0,0,2.5-.6l1.2-.6,1.2-.7h.1a.5.5,0,0,1,.6.8l-1.1,1.1-1.3.9a7.7,7.7,0,0,1-3.1,1,6.6,6.6,0,0,1-3.3-.6,6.3,6.3,0,0,1-2.5-2.1.5.5,0,0,1,.7-.7Z"/><path class="cls-3" d="M60.4,159.3a9.3,9.3,0,0,0,2.6,2.4,8.3,8.3,0,0,0,3.2,1.2,12.2,12.2,0,0,0,3.6-.1l1.8-.4,1.8-.5h.1a.5.5,0,0,1,.4,1l-1.8,1-1.9.7a11,11,0,0,1-4.2.3,8.4,8.4,0,0,1-4-1.7,7.6,7.6,0,0,1-2.5-3.4.5.5,0,0,1,.9-.5Z"/><path class="cls-3" d="M40.3,155.1a7.5,7.5,0,0,0,1.4,1.1,4.8,4.8,0,0,0,1.6.6h1.7l1.9-.4h0a.5.5,0,0,1,.4.8l-.9.6-1.1.4a5.1,5.1,0,0,1-2.3.1,4.5,4.5,0,0,1-2.1-1,4.4,4.4,0,0,1-1.3-1.9.5.5,0,0,1,.3-.6h.5Z"/><path class="cls-3" d="M90.9,183.8a7.5,7.5,0,0,0,1.5,1,4.8,4.8,0,0,0,1.6.5h1.7l1.8-.6h0a.5.5,0,0,1,.5.8l-.9.7-1,.5a5.1,5.1,0,0,1-2.3.4,4.5,4.5,0,0,1-2.2-.8,4.4,4.4,0,0,1-1.5-1.7.5.5,0,0,1,.2-.6h.6Z"/><path class="cls-3" d="M135.4,152.5a7.7,7.7,0,0,0,2.1.6,4.8,4.8,0,0,0,2.1-.2,5.9,5.9,0,0,0,1.9-1l.9-.7.8-.8h0a.4.4,0,0,1,.6.5l-.7,1.1-.9,1a6.2,6.2,0,0,1-2.3,1.4,5.5,5.5,0,0,1-5.1-1.1.4.4,0,0,1,.4-.7Z"/><path class="cls-3" d="M52.4,169.6a7.7,7.7,0,0,0,1.2,1.8,4.8,4.8,0,0,0,1.7,1.2,5.9,5.9,0,0,0,2.1.5h2.4a.4.4,0,0,1,.2.8l-1.2.4-1.3.2a6.2,6.2,0,0,1-2.7-.5,5.5,5.5,0,0,1-3.2-4.2.4.4,0,0,1,.7-.2Z"/><path class="cls-3" d="M114.1,146.5a11.3,11.3,0,0,0,3.6.9,10.4,10.4,0,0,0,3.7-.4,13.4,13.4,0,0,0,3.4-1.7l1.6-1.2,1.5-1.3h0a.5.5,0,0,1,.8.7l-1.3,1.7a19,19,0,0,1-1.6,1.5,12,12,0,0,1-3.8,2.1,9.9,9.9,0,0,1-4.4.3,8.8,8.8,0,0,1-4-1.8.5.5,0,0,1,.5-.9Z"/><path class="cls-3" d="M72.5,175l2.2,1.3a9.2,9.2,0,0,0,2.4.8,6.1,6.1,0,0,0,2.4-.1A9.5,9.5,0,0,0,82,176h0a.4.4,0,0,1,.5.7,6.7,6.7,0,0,1-2.5,1.6,6.1,6.1,0,0,1-3.1.3,7.6,7.6,0,0,1-2.8-1.1,8.1,8.1,0,0,1-2.2-2,.4.4,0,0,1,.6-.6Z"/><path class="cls-3" d="M102.5,176.5l2.5.6a9.2,9.2,0,0,0,2.5,0,6.1,6.1,0,0,0,2.3-.8,9.5,9.5,0,0,0,2-1.6h0a.4.4,0,0,1,.7.5,6.7,6.7,0,0,1-1.9,2.3,6.1,6.1,0,0,1-2.8,1.2,7.6,7.6,0,0,1-3-.1,8.1,8.1,0,0,1-2.7-1.2.4.4,0,0,1,.4-.8Z"/><path class="cls-3" d="M42.9,143.6a11.3,11.3,0,0,0,3,2.3,10.4,10.4,0,0,0,3.5,1.1,13.4,13.4,0,0,0,3.8-.1l1.9-.4,1.9-.6H57a.5.5,0,0,1,.4,1l-1.9,1-2,.7a12,12,0,0,1-4.4.4,9.9,9.9,0,0,1-4.2-1.5,8.8,8.8,0,0,1-3-3.2.5.5,0,0,1,.9-.6Z"/><path class="cls-3" d="M139.7,60.7a10.2,10.2,0,0,0-1.9-2.4,7.9,7.9,0,0,0-2.5-1.6,9.7,9.7,0,0,0-2.9-.6h-3.2a.5.5,0,0,1-.2-1l1.7-.6,1.8-.3a8.9,8.9,0,0,1,3.6.5,7.6,7.6,0,0,1,3,2.1,7.3,7.3,0,0,1,1.6,3.3.5.5,0,0,1-1,.4Z"/><path class="cls-3" d="M96.5,20.6A10.2,10.2,0,0,0,94,18.8a7.9,7.9,0,0,0-2.8-.8,9.7,9.7,0,0,0-3,.3l-1.5.5-1.5.6h-.1a.5.5,0,0,1-.5-.9l1.4-1,1.6-.8a8.9,8.9,0,0,1,3.6-.6,7.6,7.6,0,0,1,3.5,1.1,7.3,7.3,0,0,1,2.5,2.6.5.5,0,0,1-.8.7Z"/><path class="cls-3" d="M119.8,48.3a10.2,10.2,0,0,0-1.9-2.4,7.9,7.9,0,0,0-2.5-1.6,9.7,9.7,0,0,0-2.9-.6h-3.2a.5.5,0,0,1-.2-1l1.7-.6,1.8-.3a8.9,8.9,0,0,1,3.6.5,7.6,7.6,0,0,1,3,2.1,7.3,7.3,0,0,1,1.6,3.3.5.5,0,0,1-1,.4Z"/><path class="cls-3" d="M104.6,32.9a11.1,11.1,0,0,0-2.4-2.5,7.4,7.4,0,0,0-3-1.3,9.4,9.4,0,0,0-3.4.1l-1.7.4-1.7.6h-.1a.5.5,0,0,1-.5-1l1.7-1,1.9-.7a9.2,9.2,0,0,1,4.2-.3,7.8,7.8,0,0,1,3.8,1.9,8.3,8.3,0,0,1,2.3,3.4.5.5,0,0,1-.9.5Z"/><path class="cls-3" d="M129.6,35.8a9.3,9.3,0,0,0-1.7-2,6.7,6.7,0,0,0-2.2-1.3,8.5,8.5,0,0,0-2.6-.4h-2.8a.5.5,0,0,1-.2-1l1.5-.6,1.6-.3a7.7,7.7,0,0,1,3.3.4,6.6,6.6,0,0,1,2.8,1.9,6.3,6.3,0,0,1,1.5,2.9.5.5,0,0,1-1,.4Z"/><path class="cls-3" d="M152.3,52.7a9.3,9.3,0,0,0-1.4-3.2,8.3,8.3,0,0,0-2.5-2.4,12.2,12.2,0,0,0-3.3-1.3l-1.8-.3-1.9-.2h-.1a.5.5,0,0,1,0-1.1l2-.2h2.1a11,11,0,0,1,4,1.4,8.4,8.4,0,0,1,3,3.1,7.6,7.6,0,0,1,1,4.1.5.5,0,0,1-1.1.1Z"/><path class="cls-3" d="M169.2,63.3a7.5,7.5,0,0,0-.8-1.6,4.8,4.8,0,0,0-1.2-1.2l-1.6-.7-1.8-.4h0a.5.5,0,0,1,0-.9l1.1-.2h1.1a5.1,5.1,0,0,1,2.2.8,4.5,4.5,0,0,1,1.5,1.8,4.4,4.4,0,0,1,.5,2.3.5.5,0,0,1-.9.1Z"/><path class="cls-3" d="M134.5,19.2a7.5,7.5,0,0,0-1.4-1.1,4.8,4.8,0,0,0-1.5-.6h-1.7l-1.9.3h0a.5.5,0,0,1-.4-.8l.9-.6,1.1-.4a5.1,5.1,0,0,1,2.3-.1,4.5,4.5,0,0,1,2.1,1.1,4.4,4.4,0,0,1,1.3,1.9.5.5,0,0,1-.3.6h-.5Z"/><path class="cls-3" d="M76,34.2a7.7,7.7,0,0,0-1.7-1.4,4.8,4.8,0,0,0-2-.7,5.9,5.9,0,0,0-2.1.2l-1.1.3-1.1.5h0a.4.4,0,0,1-.4-.7l1-.8,1.2-.6a6.2,6.2,0,0,1,2.7-.4,5.5,5.5,0,0,1,4.3,3,.4.4,0,0,1-.6.4Z"/><path class="cls-3" d="M163.7,46.4a7.7,7.7,0,0,0-.4-2.2,4.8,4.8,0,0,0-1.1-1.8,5.9,5.9,0,0,0-1.7-1.3l-1-.4-1.1-.4h0a.4.4,0,0,1,.2-.8h1.3l1.3.3a6.2,6.2,0,0,1,2.3,1.5,5.5,5.5,0,0,1,1.3,5.1.4.4,0,0,1-.8-.1Z"/><path class="cls-3" d="M97.7,44a11.3,11.3,0,0,0-2.7-2.6A10.4,10.4,0,0,0,91.5,40a13.4,13.4,0,0,0-3.8-.2l-1.9.3-1.9.4h-.1a.5.5,0,0,1-.3-1l1.9-.8,2.1-.5a12,12,0,0,1,4.4,0,9.9,9.9,0,0,1,4,1.9,8.8,8.8,0,0,1,2.7,3.5.5.5,0,0,1-.9.5Z"/><path class="cls-3" d="M147.3,33.5a15.1,15.1,0,0,0-1.5-2.1,9.2,9.2,0,0,0-1.9-1.6,6.1,6.1,0,0,0-2.3-.9,9.5,9.5,0,0,0-2.6-.1H139a.4.4,0,0,1-.2-.8,6.7,6.7,0,0,1,2.9-.5,6.1,6.1,0,0,1,2.9.9,7.6,7.6,0,0,1,2.2,2.1,8.1,8.1,0,0,1,1.3,2.7.4.4,0,0,1-.8.3Z"/><path class="cls-3" d="M119.4,20.5a15.1,15.1,0,0,0-2.1-1.5,9.2,9.2,0,0,0-2.3-1,6.1,6.1,0,0,0-2.4-.1,9.5,9.5,0,0,0-2.5.7h0a.4.4,0,0,1-.4-.7,6.7,6.7,0,0,1,2.7-1.3,6.1,6.1,0,0,1,3.1,0,7.6,7.6,0,0,1,2.7,1.3,8.1,8.1,0,0,1,2,2.1.4.4,0,0,1-.6.6Z"/><path class="cls-3" d="M162.2,73.9a11.3,11.3,0,0,0-1.8-3.3,10.4,10.4,0,0,0-2.8-2.4,13.4,13.4,0,0,0-3.5-1.3l-1.9-.3-2-.2h-.1a.5.5,0,0,1,0-1.1l2.1-.2h2.1a12,12,0,0,1,4.2,1.4,9.9,9.9,0,0,1,3.2,3.1,8.8,8.8,0,0,1,1.5,4.1.5.5,0,0,1-1,.2Z"/></g></g></svg>