<?xml version="1.0" encoding="utf-8"?>
<!-- Generator: Adobe Illustrator 21.1.0, SVG Export Plug-In . SVG Version: 6.00 Build 0)  -->
<svg version="1.1" id="圖層_1" xmlns="http://www.w3.org/2000/svg" xmlns:xlink="http://www.w3.org/1999/xlink" x="0px" y="0px"
	 viewBox="0 0 200 200" style="enable-background:new 0 0 200 200;" xml:space="preserve">
<style type="text/css">
	.st0{fill:#96C845;}
	.st1{fill:#6FB300;}
	.st2{fill:#6B4300;}
	.st3{fill:#6B1C00;}
	.st4{fill:#FFA28A;}
	.st5{opacity:0.4;fill:#FFB691;}
	.st6{fill:#FF937C;}
	.st7{opacity:0.1;}
	.st8{opacity:0.1;fill:#F89775;}
	.st9{opacity:0.1;fill:#FFFFFF;}
	.st10{fill:#295629;}
	.st11{opacity:0.2;fill:#295629;}
	.st12{fill:#97C020;}
	.st13{fill:#B7D24E;}
	.st14{fill:#C8DA6D;}
	.st15{fill:#834B00;}
	.st16{fill:#FFBC00;}
	.st17{opacity:0.3;fill:#FFFFFF;}
	.st18{opacity:0.15;fill:#FFFFFF;}
	.st19{fill:#A87600;}
	.st20{fill:#009900;}
	.st21{fill:#65B600;}
</style>
<g>
	<path class="st16" d="M118.2,17c0,0,31.5-0.3,53.1,34.6s-10.8,84.3-16.8,93s-9.8,32.9-10.1,39.2c-0.3,6.3-8,18.9-19.2,15.7
		c-11.2-3.1-42-16.4-66.1-58.7S52.1,8.3,118.2,17z"/>
	<path class="st17" d="M125.5,191.1c-12,1.5-31.6-10.8-43.4-19.2c17.9,18.4,35.2,25.5,43,27.7c11.2,3.1,18.9-9.4,19.2-15.7
		c0.1-1.2,0.2-2.9,0.5-5.1C138.8,186.7,134.1,190,125.5,191.1z"/>
	<path class="st18" d="M110.3,137.7c-29.9-2.4-54.2-25.9-61.3-33.4c1,13.6,4.4,26.4,10.1,36.5c7.3,12.8,15.3,23,23.1,31
		c11.8,8.4,31.4,20.7,43.4,19.2c8.6-1.1,13.3-4.3,19.4-12.3c1.3-9.6,4.7-27,9.6-34.1c2.2-3.3,8.2-12.3,13.6-24
		C153.3,131.2,134.2,139.6,110.3,137.7z"/>
	<ellipse class="st19" cx="114.7" cy="22" rx="4.4" ry="1.4"/>
	<path class="st15" d="M113.7,22.9c0,0-2.1-9.1,0.4-16.9c0.9-3.6,1.2-6.5,2.8-5.8c1.7,0.7,5.8,2.5,3.5,4.8s-3.3,2.5-4,7.2
		s-1.2,7.9-1.1,10.5C113.7,22.9,113.7,22.9,113.7,22.9z"/>
	<path class="st7" d="M111.9,23.6c0.9-0.6,1.7-1.3,2.6-1.9c0,0-37.4,10.4-56.9,31c-9.8,21.5-11.5,48.8-5.6,70.8
		c8.3-6.1,16.9-14.3,21.3-25C80.8,80.4,81,46.9,111.9,23.6z"/>
	<g>
		<path class="st20" d="M46.1,78.2c8.2-20.1,17.5-51.4,65.7-67c0.9-0.5,1.9-1,2.9-1.5c0,0-52.1,6.9-70,32.4
			c-17.9,25.3-7.8,45.6-23,66.9C26.5,105.5,39.2,95.1,46.1,78.2z"/>
		<path class="st21" d="M46.1,78.2c-6.9,16.9-19.7,27.3-24.5,30.8c-0.1,0.1-0.2,0.3-0.3,0.4c10.6-4.2,31.7-12.3,41.8-29.5
			c9.8-16.8,14.7-49.9,48.6-68.7C63.6,26.8,54.3,58.1,46.1,78.2z"/>
	</g>
	<path class="st18" d="M121.2,50.7c0,0,10-17.9,22.9-11.9s25.6,16.1,20.9,27.4c-4.8,11.3-10.7,22.4-30.7,17
		C114.2,77.8,117,60.3,121.2,50.7z"/>
</g>
</svg>
