<?xml version="1.0" encoding="utf-8"?>
<!-- Generator: Adobe Illustrator 21.1.0, SVG Export Plug-In . SVG Version: 6.00 Build 0)  -->
<svg version="1.1" id="圖層_1" xmlns="http://www.w3.org/2000/svg" xmlns:xlink="http://www.w3.org/1999/xlink" x="0px" y="0px"
	 viewBox="0 0 200 200" style="enable-background:new 0 0 200 200;" xml:space="preserve">
<style type="text/css">
	.st0{fill:#6B4300;}
	.st1{fill:#96C845;}
	.st2{opacity:0.2;fill:#96C845;}
	.st3{fill:url(#SVGID_1_);}
	.st4{opacity:0.2;fill:#CBE4A4;}
	.st5{opacity:0.3;fill:#CBE4A4;}
	.st6{fill:#BB4134;}
	.st7{fill:#F04134;}
	.st8{fill:#F25A4F;}
	.st9{fill:#87C54B;}
	.st10{fill:#E9E9AC;}
	.st11{opacity:0.15;}
	.st12{fill:#FF423B;}
	.st13{fill:#58A13F;}
	.st14{fill:#DBE9AC;}
	.st15{fill:none;stroke:#FF423B;stroke-miterlimit:10;}
	.st16{fill:#6FB300;}
	.st17{fill:#6B1C00;}
	.st18{fill:#FFA28A;}
	.st19{opacity:0.4;fill:#FFB691;}
	.st20{fill:#FF937C;}
	.st21{opacity:0.1;}
	.st22{opacity:0.1;fill:#F89775;}
	.st23{opacity:0.1;fill:#FFFFFF;}
</style>
<g>
	<g>
		<path class="st1" d="M132.6,41.8c-3.2,1.8-12.5,0.3-21.1,8.8c-6.6,6.5-9.5,7.5-9.5,7.5c11.9,2.6,23-0.2,28-3
			c18.1-10.3,15.7-19.9,15.6-23.3C143.9,36.3,135.6,40.2,132.6,41.8z"/>
		<path class="st16" d="M129.5,34.7c-6.7,0.1-17.6,4-21.1,13.4c-3.3,9-6.5,10-6.5,10s2.5,0.1,9.3-6.2c9.7-8.8,17.2-6,24.1-10.3
			c2.9-1.8,8.6-5.5,10.2-9.9c0,0,0-0.1,0-0.1C141.2,34.5,137.7,34.6,129.5,34.7z"/>
	</g>
	<path class="st0" d="M97,36.9c2.2,2.6,2.4,5.8,4.2,15.5c2.2,12.5-3.4,10.7-3.4,10.7L110.3,75c0,0,2.2,3-1.7-16.2
		c-5.9-16.3-8.1-23.2-8.1-23.2C99.3,35.4,97.1,36.9,97,36.9z"/>
	<ellipse transform="matrix(0.9295 -0.3689 0.3689 0.9295 -6.3725 39.2146)" class="st17" cx="99.4" cy="36.3" rx="1.8" ry="0.5"/>
	<path class="st18" d="M102.1,57.7c0,0,22.4-12.3,34.4-9.8c12,2.5,47.5,11.9,47.2,58.2c-0.3,46.3-38,67.1-53.2,70.3
		c-4.4,1.6-16.5,2.5-17.7,9.8C111.5,166.6,79.5,113.1,102.1,57.7z"/>
	<path class="st19" d="M138.8,106.8c-7-25.2-18.7-40.2-28.1-44.2c7.9,6.8,16.2,20.3,21.7,40c7.6,27.2-7.6,56.7-9.8,61.1
		c-2,3.9-6.9,14.5-9.1,20.4c1.8-3.4,6.5-5.1,10.7-6.1c1.9-4.1,3.7-8.1,4.8-10.1C131.2,163.5,146.4,134,138.8,106.8z"/>
	<path class="st20" d="M102.1,57.7c0,0-80.9-26.3-85.6,46.9s75,75,80.7,75.4s14.2,3.8,15.5,6.3c1.6-5.1,7.6-18,9.8-22.5
		c2.2-4.4,17.4-33.9,9.8-61.1S111.8,60.1,102.1,57.7z"/>
	<path class="st21" d="M101.8,57.6c-3.5-1.1-39.3-14-66.5,5.9c4.2,2.7,13.3,6.5,20.5,7.4c9.6,1.2,26.4-1.8,46.7-13.1
		C102.1,57.7,102.1,57.7,101.8,57.6z"/>
	<path class="st22" d="M51.9,130.4c-4.1-22.1,1.4-51.8,8.1-76.6c-20.4,2.9-41.1,14.8-43.4,50.7c-3.5,53.4,38.1,68.8,63,73.4
		C66,165.2,55.3,148.8,51.9,130.4z"/>
	<g>
		<path class="st1" d="M46.5,37.6c5.8,2.3,22.4-4.2,38.4,9c12.2,10.1,17.5,10.9,17.5,10.9c-21.3,9.7-41.3,8.6-50.4,5
			C19,49.5,22.9,29.9,22.8,23.2C25.9,31.1,41.2,35.5,46.5,37.6z"/>
		<path class="st16" d="M51.7,22.5c12-2.4,31.9,1,38.5,18.1c6.3,16.2,12.3,17,12.3,17s-4.4,1.1-17.1-8.4
			c-17.9-13.4-31.2-5.1-43.7-10.7c-5.3-2.4-15.7-7.4-18.8-15.3c0-0.1,0.1-0.2,0.1-0.3C30.8,26.6,37,25.5,51.7,22.5z"/>
	</g>
	<path class="st23" d="M159,69.3c0,1.7-0.4,3.2-1.1,4.6c-0.2,0.5-0.5,0.9-0.8,1.3c-2,2.4-4.6,3.9-7.6,2.9c-3.5-0.5-1-7.6-4.4-10.8
		c-0.2-0.5-0.5-0.9-0.6-1.4c-1-2.2-1.2-4.1,2-6c2-1,3.5-0.5,5.7-0.2c0.5,0.2,1,0.4,1.4,0.6C156.8,62,159,65.4,159,69.3z"/>
</g>
</svg>
