<?xml version="1.0" encoding="utf-8"?>
<!-- Generator: Adobe Illustrator 21.1.0, SVG Export Plug-In . SVG Version: 6.00 Build 0)  -->
<svg version="1.1" id="圖層_1" xmlns="http://www.w3.org/2000/svg" xmlns:xlink="http://www.w3.org/1999/xlink" x="0px" y="0px"
	 viewBox="0 0 200 200" style="enable-background:new 0 0 200 200;" xml:space="preserve">
<style type="text/css">
	.st0{fill:#FF7100;}
	.st1{opacity:5.000000e-02;}
	.st2{opacity:0.1;}
	.st3{fill:#70B800;}
	.st4{fill:#2F9500;}
	.st5{fill:#538F00;}
	.st6{fill:#66A100;}
	.st7{fill:#8DB941;}
	.st8{opacity:0.1;fill:#FFFFFF;}
</style>
<g>
	<g>
		<path class="st0" d="M15,113.6c0-25.1,16.3-77.5,89.4-77.5S185,76.6,185,105.3s-16.7,80.6-82.4,80.6S15,144,15,113.6z"/>
	</g>
	<path class="st1" d="M174.3,62.9c-4.4,22.8-16.2,59.5-43.4,78.4c-25,17.4-63.4,22.7-92.1,24.2c13.8,12,34.5,20.4,63.8,20.4
		c65.6,0,82.4-52,82.4-80.6C185,92,183.4,76.1,174.3,62.9z"/>
	<path class="st2" d="M173.6,61.9c-8.3-11.4-22.4-20.6-46.3-24.2c-6.8-1-14.4-1.6-22.9-1.6c-4.4,0-8.6,0.2-12.6,0.6
		C66,39,48.4,48.5,36.7,60.6c-0.5-0.1-1.1-0.2-1.6-0.2c0.2,0.3,0.4,0.7,0.7,1.1c5.7,8.7,25.3,30.8,48.6,18.9
		c2,10.1,4.4,15.1,13,18.9c8.5,3.8,11.7,10.1,11.5,12.2c3.3-7.6,7.7-13,12.6-16.2c4.9-3.2,8.8-10.2,9.3-16.6
		c6.1,2.6,18.8,4,24.7-0.3c5-3.6,13.3-12.4,19.2-14.9C174.3,62.9,173.9,62.4,173.6,61.9z"/>
	<path class="st3" d="M115.6,14.1c-5.4,2.3-33.2,12.1-25.4,30.6c-2.9,0-12.8-6.5-25.8,2.1s-17.1,9.2-25.2,7.9
		c4.6,7.6,20.7,31,45.1,18.5c2,10.1,4.4,15.1,13,18.9s11.7,10.1,11.5,12.2c3.3-7.6,7.7-13,12.6-16.2c4.9-3.2,8.8-10.2,9.3-16.6
		c6.1,2.6,18.8,4,24.7-0.3c5.9-4.3,16.5-15.9,22.3-15.6c-5.8-1.5-11.6-1.6-21.5-8.8s-24.4-4-25.9-3.2c1.4-7.4,0.3-11.1-7.8-17.2
		S115.6,14.1,115.6,14.1z"/>
	<g>
		<path class="st4" d="M108.5,42.2c-0.4-1.3-0.6-2.6-0.8-3.9c-0.2-1.3-0.2-2.6-0.3-3.9c0-1.3,0-2.6,0.1-3.9c0.1-1.3,0.3-2.6,0.6-3.9
			l0.7,0c0.4,1.3,0.6,2.6,0.8,3.9c0.2,1.3,0.2,2.6,0.3,3.9c0,1.3,0,2.6-0.1,3.9c-0.1,1.3-0.3,2.6-0.6,3.9L108.5,42.2z"/>
	</g>
	<g>
		<path class="st4" d="M102.4,28.8c-0.8,1-1.6,2.1-2.2,3.2c-0.6,1.1-1.1,2.3-1.5,3.6c-0.4,1.2-0.6,2.5-0.7,3.8
			c-0.1,1.3-0.1,2.6,0,3.9l0,0c0,0.2-0.1,0.4-0.3,0.4c-0.2,0-0.3-0.1-0.4-0.3c-0.1-0.7-0.3-1.3-0.4-2c-0.1-0.7-0.1-1.4-0.1-2.1
			c0-1.4,0.3-2.8,0.6-4.1c0.4-1.4,1-2.6,1.8-3.8c0.8-1.2,1.7-2.2,2.8-3.1c0.2-0.1,0.4-0.1,0.5,0.1C102.5,28.5,102.5,28.7,102.4,28.8
			L102.4,28.8z"/>
	</g>
	<g>
		<path class="st4" d="M115.8,28.3c1.1,0.9,2,1.9,2.8,3.1c0.8,1.2,1.4,2.5,1.8,3.8c0.4,1.4,0.7,2.7,0.6,4.1c0,0.7,0,1.4-0.1,2.1
			c-0.1,0.7-0.2,1.4-0.4,2c0,0.2-0.2,0.3-0.4,0.3c-0.2,0-0.3-0.2-0.3-0.4l0,0c0.1-1.3,0.1-2.6,0-3.9c-0.1-1.3-0.4-2.6-0.7-3.8
			c-0.4-1.2-0.9-2.4-1.5-3.6c-0.6-1.1-1.4-2.2-2.2-3.2l0,0c-0.1-0.1-0.1-0.4,0-0.5C115.5,28.2,115.7,28.2,115.8,28.3z"/>
	</g>
	<g>
		<path class="st4" d="M107.7,69c0.3,1.3,0.4,2.6,0.5,3.9c0.1,1.3,0.1,2.6,0.1,3.9c0,1.3-0.1,2.6-0.2,3.9c-0.1,1.3-0.3,2.6-0.6,3.9
			l-0.6,0c-0.3-1.3-0.4-2.6-0.5-3.9c-0.1-1.3-0.1-2.6-0.1-3.9c0-1.3,0.1-2.6,0.2-3.9c0.1-1.3,0.3-2.6,0.6-3.9L107.7,69z"/>
	</g>
	<g>
		<path class="st4" d="M100.5,82.9c-1.1-0.9-2-1.9-2.8-3.1c-0.8-1.2-1.4-2.5-1.8-3.8c-0.4-1.4-0.7-2.7-0.6-4.1c0-0.7,0-1.4,0.1-2.1
			c0.1-0.7,0.2-1.4,0.4-2c0-0.2,0.2-0.3,0.4-0.3c0.2,0,0.3,0.2,0.3,0.4l0,0c-0.1,1.3-0.1,2.6,0,3.9c0.1,1.3,0.4,2.6,0.7,3.8
			c0.4,1.2,0.9,2.4,1.5,3.6c0.6,1.1,1.4,2.2,2.2,3.2l0,0c0.1,0.1,0.1,0.4,0,0.5C100.8,83,100.6,83,100.5,82.9z"/>
	</g>
	<g>
		<path class="st4" d="M113.9,82.4c0.8-1,1.6-2.1,2.2-3.2c0.6-1.1,1.1-2.3,1.5-3.6c0.4-1.2,0.6-2.5,0.7-3.8c0.1-1.3,0.1-2.6,0-3.9
			l0,0c0-0.2,0.1-0.4,0.3-0.4c0.2,0,0.3,0.1,0.4,0.3c0.1,0.7,0.3,1.3,0.4,2c0.1,0.7,0.1,1.4,0.1,2.1c0,1.4-0.3,2.8-0.6,4.1
			c-0.4,1.4-1,2.6-1.8,3.8c-0.8,1.2-1.7,2.2-2.8,3.1c-0.2,0.1-0.4,0.1-0.5-0.1C113.8,82.7,113.8,82.5,113.9,82.4L113.9,82.4z"/>
	</g>
	<g>
		<path class="st4" d="M83.5,51.1c-2.1-0.1-4.2-0.1-6.3,0.1c-2.1,0.1-4.2,0.4-6.2,0.8c-2.1,0.4-4.1,1-6,1.8
			c-1.9,0.8-3.8,1.9-5.5,3.1l0,0c-0.1,0.1-0.3,0.1-0.4-0.1c-0.1-0.1-0.1-0.3,0-0.4c1.7-1.4,3.5-2.6,5.5-3.5c2-0.9,4-1.6,6.2-2
			c2.1-0.5,4.3-0.7,6.4-0.8c2.2-0.1,4.3,0.1,6.4,0.5c0.1,0,0.2,0.2,0.2,0.3C83.8,51,83.6,51.1,83.5,51.1L83.5,51.1z"/>
	</g>
	<g>
		<path class="st4" d="M83.9,65c-1.9,1-3.9,1.7-6,2.3c-2.1,0.6-4.2,1-6.4,1.1c-2.2,0.2-4.3,0.2-6.5-0.1c-2.2-0.3-4.2-0.9-6.2-1.7
			c-0.1-0.1-0.2-0.2-0.1-0.3c0.1-0.1,0.2-0.2,0.3-0.2l0,0c2,0.6,4,1.1,6.1,1.3c2.1,0.2,4.2,0.2,6.3,0c2.1-0.2,4.2-0.6,6.2-1.1
			c2-0.5,4.1-1.1,6.1-1.8l0,0c0.1,0,0.3,0,0.3,0.2C84.1,64.8,84,64.9,83.9,65z"/>
	</g>
	<g>
		<path class="st4" d="M63.7,59.7c1.8,0.2,3.7,0.2,5.6,0.1c1.9-0.1,3.7-0.3,5.6-0.6c1.8-0.3,3.7-0.7,5.5-1.2
			c1.8-0.5,3.6-1.1,5.3-1.8l0,0c0.2-0.1,0.4,0,0.5,0.2c0.1,0.2,0,0.4-0.2,0.4c-1.7,0.9-3.5,1.6-5.3,2.2c-0.9,0.3-1.8,0.5-2.8,0.7
			C77,60,76,60.2,75.1,60.3c-1.9,0.3-3.8,0.5-5.7,0.5c-1.9,0-3.8-0.1-5.7-0.4c-0.2,0-0.3-0.2-0.3-0.4C63.4,59.9,63.5,59.7,63.7,59.7
			L63.7,59.7z"/>
	</g>
	<g>
		<path class="st4" d="M154.8,61.4c-1.9,1-3.9,1.8-6,2.4c-2.1,0.6-4.2,1-6.3,1.3c-2.1,0.3-4.3,0.2-6.5,0c-2.2-0.2-4.3-0.8-6.3-1.6
			c-0.1-0.1-0.2-0.2-0.1-0.3c0.1-0.1,0.2-0.2,0.3-0.2l0,0c2,0.6,4.1,1.1,6.2,1.2c2.1,0.1,4.2,0.1,6.3-0.2c2.1-0.3,4.1-0.7,6.2-1.2
			c2-0.5,4.1-1.2,6-1.9l0,0c0.1-0.1,0.3,0,0.3,0.2C155,61.2,154.9,61.4,154.8,61.4z"/>
	</g>
	<g>
		<path class="st4" d="M154.6,51.4c-2-0.7-4-1.3-6.1-1.8c-2-0.5-4.1-0.9-6.2-1.1c-2.1-0.2-4.2-0.2-6.3,0c-2.1,0.2-4.1,0.7-6.1,1.3
			l0,0c-0.1,0-0.3,0-0.3-0.2c0-0.1,0-0.3,0.2-0.3c2-0.8,4.1-1.5,6.2-1.7c2.1-0.3,4.3-0.3,6.5-0.1c2.2,0.2,4.3,0.6,6.4,1.1
			c2.1,0.6,4.1,1.3,6,2.3c0.1,0.1,0.2,0.2,0.1,0.4C154.9,51.4,154.8,51.5,154.6,51.4L154.6,51.4z"/>
	</g>
	<g>
		<path class="st4" d="M133.9,55c1.9,0.2,3.8,0.3,5.8,0.4c1.9,0.1,3.9,0.1,5.8,0c1.9-0.1,3.8-0.2,5.8-0.4c1.9-0.2,3.8-0.5,5.7-0.8
			l0,0c0.2,0,0.4,0.1,0.4,0.3c0,0.2-0.1,0.3-0.3,0.4c-1.9,0.5-3.8,0.9-5.8,1.1c-1.9,0.2-3.9,0.4-5.8,0.4c-3.9,0.1-7.8-0.2-11.7-0.8
			c-0.2,0-0.3-0.2-0.3-0.4C133.5,55.1,133.7,55,133.9,55L133.9,55z"/>
	</g>
	<g>
		<path class="st5" d="M108.9,46c-8.8,0-16,3.6-16,8v3.3c0,4.4,7.1,8,16,8s16-3.6,16-8V54C124.8,49.5,117.7,46,108.9,46z"/>
		<ellipse class="st6" cx="108.9" cy="52.7" rx="16" ry="8"/>
		<ellipse class="st7" cx="108.9" cy="52.7" rx="6.7" ry="3.9"/>
	</g>
	<path class="st8" d="M63.7,102.7c0,8-6.4,14.4-14.4,14.4c-5.6,0-10.4-3.2-12.8-7.8c-0.3-0.7-0.6-1.4-0.9-2.1
		c-0.5-2.5-0.5-4.6-0.5-6.9c0.1-0.8,0.3-1.5,0.5-2.2c1.9-5.7,7.3-9.8,13.7-9.8C57.2,88.3,63.7,94.8,63.7,102.7z"/>
</g>
</svg>
