<?xml version="1.0" encoding="utf-8"?>
<!-- Generator: Adobe Illustrator 21.1.0, SVG Export Plug-In . SVG Version: 6.00 Build 0)  -->
<svg version="1.1" id="圖層_1" xmlns="http://www.w3.org/2000/svg" xmlns:xlink="http://www.w3.org/1999/xlink" x="0px" y="0px"
	 viewBox="0 0 200 200" style="enable-background:new 0 0 200 200;" xml:space="preserve">
<style type="text/css">
	.st0{fill:#6B4300;}
	.st1{fill:#96C845;}
	.st2{opacity:0.2;fill:#96C845;enable-background:new    ;}
	.st3{fill:url(#SVGID_1_);}
	.st4{opacity:0.2;fill:#CBE4A4;enable-background:new    ;}
	.st5{opacity:0.3;fill:#CBE4A4;enable-background:new    ;}
</style>
<g>
	<g>
		<path class="st0" d="M102.2,35.4l-1.3-21.3c0,0-6.4-1.8-7.9-0.6c-1.6,1.1,2.7,3.5,2.7,3.5l2,19.5L102.2,35.4z"/>
		<path class="st1" d="M100.1,33.7c0,0-41-17-64.3,26.9s-16.6,55.6-5.9,87.7s48.8,45.4,70.2,35.4c11,3.2,42.7,12.9,66.7-31.4
			s9.6-71.1,1.8-85.1C160.9,53.2,139.3,18.2,100.1,33.7z"/>
		<path class="st2" d="M125.3,165.6c-4.5,7.3-16.5,13-25.1,18.2c10.1,3,37.5,11.2,60.5-21.4C137.2,181.1,125.3,179.3,125.3,165.6z"
			/>
		<path class="st2" d="M145.4,117.2c4.1-28.3,6.6-61.2-18.4-86.7c-7.8-1.5-16.8-0.8-26.8,3.1C100.1,33.7,141.2,51.3,145.4,117.2z"/>
		
			<linearGradient id="SVGID_1_" gradientUnits="userSpaceOnUse" x1="124.4317" y1="150.9035" x2="125.5777" y2="27.1389" gradientTransform="matrix(1 0 0 -1 0 200)">
			<stop  offset="0" style="stop-color:#539B00;stop-opacity:0"/>
			<stop  offset="1" style="stop-color:#539B00"/>
		</linearGradient>
		<path class="st3" d="M100.1,33.7c0,0,19.6,10.3,28.5,27.3c8.8,16.9,16.1,29.2,16.9,56.3c0.7,27.1-12.8,41.3-26.1,52.8
			c-9.8,8.5-19,13.6-19.1,13.6c2.8,0.8,5,1.4,5.3,1.5c0.3,0.1,40.5-21.9,43.6-49.8c2-17.8,2.6-32.2-4.9-53.9
			c-4.7-13.8-24.3-39.8-44-47.9C100.2,33.6,100.1,33.7,100.1,33.7z"/>
		<path class="st4" d="M100.1,120.9c20.3-23.3-0.6-72.8-20.1-89.8c-0.2-0.2-0.3-0.4-0.4-0.6c-13.6,0.5-31,7.9-43.8,30.1
			c-22.2,38.2-16.8,56.7-10,75.8C38,146.9,79,145.3,100.1,120.9z"/>
	</g>
	<path class="st5" d="M57.9,73.4c-0.6,2.7-2.2,4.9-3.8,7.2c-0.7,1-1.7,1.8-2.5,2.6c-2.7,2.1-5.6,3-8.2,2.2c-0.9-0.3-1.7-0.7-2.4-1.4
		c-0.7-0.6-1.3-1.4-1.8-2.3c0.1-0.7,0.2-1.4,0.3-2.1c0.1-0.7,0.3-1.4,0.4-2c0.5-0.5,0.9-1,1.3-1.6c0.6-0.6,1.1-1.1,1.6-1.7
		c0.5-0.6,0.8-1.1,1.2-1.8c4.1-5.2,2.5-11.3,5.2-16.8c0.3-0.8,1.1-1.1,2.1-1c2.1,0.2,5.1,1.9,6.3,3.8c2.3,4.2,1.8,8.9,1,12.7
		C58.3,72,58.1,72.6,57.9,73.4z"/>
</g>
</svg>
