<?xml version="1.0" encoding="utf-8"?>
<!-- Generator: Adobe Illustrator 21.1.0, SVG Export Plug-In . SVG Version: 6.00 Build 0)  -->
<svg version="1.1" id="圖層_1" xmlns="http://www.w3.org/2000/svg" xmlns:xlink="http://www.w3.org/1999/xlink" x="0px" y="0px"
	 viewBox="0 0 200 200" style="enable-background:new 0 0 200 200;" xml:space="preserve">
<style type="text/css">
	.st0{fill:#008442;}
	.st1{fill:#FF2C32;}
	.st2{opacity:8.000000e-02;enable-background:new    ;}
	.st3{opacity:0.15;enable-background:new    ;}
	.st4{fill:#5DB238;}
	.st5{fill:#FFFFFF;}
</style>
<g>
	<g>
		<path class="st0" d="M96.5,41.4c0,0-12.4-10-24.8-7.8s-22.5,6-33.8-2.6c3.8,8,10.4,18.3,23.4,15.4S96.6,47.1,96.5,41.4z"/>
		<path class="st0" d="M100,41.7c0,0,17.8-10.5,30.2-8.2c12.4,2.2,24.7,6.3,35.9-2.3c-3.8,8-10.4,18.3-23.4,15.4
			C129.7,43.7,99.9,47.2,100,41.7z"/>
		<path class="st1" d="M142.5,49.5c-17.4-6.7-42.5,0-42.5,0s-25.1-6.7-42.5,0c0,0-28.5,11.4-28.5,35.5s17.8,50.6,34.2,71.4
			c16.4,20.7,19.1,27.4,36.9,27.4s20.4-6.7,36.9-27.5S171,109,171,84.9C171,60.9,142.5,49.5,142.5,49.5z"/>
		<path class="st2" d="M57.5,49.5c0,0-28.5,11.4-28.5,35.5s17.8,50.6,34.2,71.4c16.4,20.7,19.1,27.4,36.9,27.4V49.5
			C100,49.5,74.9,42.8,57.5,49.5z"/>
		<path class="st3" d="M153.3,55.5c-5.8-4.1-10.7-6-10.7-6c-17.4-6.7-42.5,0-42.5,0s-25.1-6.7-42.5,0c0,0-6.5,2.6-13.4,8
			c1.4,0.3,2.8,0.6,4.3,0.9c7.8,1.8,15.3,3.5,25.3-0.9C72,61,71.7,65.1,75,70c0.6,0.9,1.8,1.3,2.8,1c0.3-0.1,1.3-0.3,2.3-0.4
			c5.4-0.8,16.6-2.5,21.3-10.8c2,3.9,4.3,7.1,9.6,8.6c4.9,1.4,6.1,3.7,6.1,3.8c0.3,0.7,0.7,1.2,1.3,1.4c0.3,0.1,0.6,0.2,0.8,0.2
			c0.4,0,0.8-0.1,1.2-0.3c0.4-0.2,9.5-4.4,10.1-11.8c0.2-2.1-0.4-4.2-1.7-6.2C135.8,57.1,144.2,58,153.3,55.5z"/>
		<path class="st4" d="M95.1,39.4c0,0-35.4-9.1-50.5,15.6c12.8,2.6,21.9,7.1,39.7-7.2c-4.2,6-13.6,11.4-7.1,20.9
			c3.4-1,22.2-1.3,23.8-15.4c3.4,6.4,4.4,11,10.8,12.8c6.4,1.8,7.8,5.2,7.8,5.2s19.3-8.8,0-20.9c8.6,2.6,24,8.2,40.1,0.2
			c-1.4-3.9-19-24.2-57.5-10.6C100,40.4,98.2,40.1,95.1,39.4z"/>
		<path class="st4" d="M109,16.4c0,0-9,3.2-12.6,20.4c-3.9,19.4-1.8,16.4-1.8,16.4l12.6-12c0,0-5.7,1.8-3.4-10.8
			c1.8-9.9,6.4-10.1,8.6-12.7C112.4,17.7,110.1,16.2,109,16.4z"/>
		
			<ellipse transform="matrix(0.3689 -0.9295 0.9295 0.3689 53.9919 113.6903)" class="st0" cx="110.7" cy="17.1" rx="0.5" ry="1.8"/>
	</g>
	<g>
		<path class="st5" d="M51.1,69.3c0.7-1.3,2.3-1.7,3.5-1c1.3,0.7,1.7,2.3,1,3.5c-0.7,1.3-5,3.6-5,3.6S50.3,70.4,51.1,69.3z"/>
		<path class="st5" d="M73.1,78.6c0.4-1.3,1.8-2.2,3.2-1.8c1.3,0.4,2.2,1.8,1.8,3.2c-0.4,1.3-4.1,4.6-4.1,4.6S72.7,80,73.1,78.6z"/>
		<path class="st5" d="M55.7,122.3c-0.7-1.3-0.3-2.8,1-3.5s2.8-0.3,3.5,1c0.7,1.3,0.4,6.1,0.4,6.1S56.4,123.5,55.7,122.3z"/>
		<path class="st5" d="M76,150.1c-0.7-1.3-0.3-2.8,1-3.5c1.3-0.7,2.8-0.3,3.5,1c0.7,1.3,0.4,6.1,0.4,6.1S76.6,151.3,76,150.1z"/>
		<path class="st5" d="M55.4,94.5c0-1.4,1.2-2.6,2.6-2.5c1.4,0,2.6,1.2,2.5,2.6c-0.1,1.4-2.7,5.5-2.7,5.5S55.4,96,55.4,94.5z"/>
		<path class="st5" d="M101.1,77.6c0-1.4,1.2-2.6,2.6-2.6c1.4,0,2.6,1.2,2.6,2.6s-2.6,5.6-2.6,5.6S101.1,79.1,101.1,77.6z"/>
		<path class="st5" d="M99.5,123.9c0-1.4,1.2-2.6,2.6-2.6c1.4,0,2.6,1.2,2.6,2.6s-2.6,5.6-2.6,5.6S99.5,125.3,99.5,123.9z"/>
		<path class="st5" d="M96,165.6c0-1.4,1.2-2.6,2.6-2.6c1.4,0,2.6,1.2,2.6,2.6c0,1.4-2.6,5.6-2.6,5.6S96,167.1,96,165.6z"/>
		<path class="st5" d="M80.9,105.2c-0.3-1.4,0.8-2.7,2.2-2.9c1.4-0.3,2.7,0.8,2.9,2.2c0.3,1.4-1.8,5.9-1.8,5.9
			S81.2,106.6,80.9,105.2z"/>
		<path class="st5" d="M112.6,102.6c0-1.4,1.1-2.6,2.5-2.6c1.4,0,2.6,1.1,2.6,2.5s-2.5,5.6-2.5,5.6S112.6,104,112.6,102.6z"/>
		<path class="st5" d="M123.6,131.1c0.6-1.3,2.1-1.9,3.4-1.3c1.3,0.6,1.9,2.1,1.3,3.4c-0.6,1.3-4.5,4.1-4.5,4.1
			S123,132.4,123.6,131.1z"/>
		<path class="st5" d="M80.1,131.9c-0.5-1.3,0.3-2.8,1.6-3.3c1.3-0.5,2.8,0.3,3.3,1.6c0.4,1.3-0.6,6.1-0.6,6.1
			S80.6,133.2,80.1,131.9z"/>
		<path class="st5" d="M124.4,80c-0.3-1.3,0.5-2.8,1.8-3.1s2.8,0.5,3.1,1.8c0.3,1.3-1.1,6-1.1,6S124.7,81.3,124.4,80z"/>
		<path class="st5" d="M147.7,71.6c-0.6-1.3-0.1-2.8,1.2-3.4s2.8-0.1,3.4,1.2c0.6,1.3,0.2,6.1,0.2,6.1S148.4,72.9,147.7,71.6z"/>
		<path class="st5" d="M143.8,94c0.4-1.3,1.8-2.2,3.2-1.8c1.3,0.4,2.2,1.8,1.8,3.2c-0.4,1.3-4,4.7-4,4.7S143.5,95.4,143.8,94z"/>
		<path class="st5" d="M138.8,117c0.4-1.3,1.8-2.2,3.2-1.8c1.3,0.4,2.2,1.8,1.8,3.2c-0.4,1.3-4,4.7-4,4.7S138.4,118.4,138.8,117z"/>
		<path class="st5" d="M111.1,147.9c-0.1-1.4,1.1-2.6,2.5-2.7c1.4-0.1,2.6,1.1,2.7,2.5s-2.4,5.7-2.4,5.7S111.1,149.3,111.1,147.9z"
			/>
	</g>
</g>
</svg>
