<?xml version="1.0" encoding="utf-8"?>
<!-- Generator: Adobe Illustrator 21.1.0, SVG Export Plug-In . SVG Version: 6.00 Build 0)  -->
<svg version="1.1" id="圖層_1" xmlns="http://www.w3.org/2000/svg" xmlns:xlink="http://www.w3.org/1999/xlink" x="0px" y="0px"
	 viewBox="0 0 200 200" style="enable-background:new 0 0 200 200;" xml:space="preserve">
<style type="text/css">
	.st0{fill:#FF9505;}
	.st1{opacity:0.1;}
	.st2{fill:#B3751E;}
	.st3{fill:#AE6D11;}
	.st4{fill:#7FBE26;}
	.st5{fill:#69A300;}
	.st6{opacity:0.1;fill:#FFFFFF;}
	.st7{opacity:0.2;fill:#FF9005;}
</style>
<g>
	<path class="st0" d="M66.2,46.9c6.3-3.8,21.5-10.7,49.4-9.9c28,0.8,57.6,35.8,59.4,58.1s-2.6,65.4-32.4,77.2
		c-29.8,11.8-72.2,12.8-94.4-7.1S2.9,85.4,66.2,46.9z"/>
	<path class="st1" d="M31.7,82.3c6.4-1,13.3-2.9,19.1-5.8c11.7-5.8,35.2-24.7,31.9-35c-0.1-0.4-0.3-0.7-0.5-1.1
		c-7.8,2.1-13,4.7-16.1,6.6C48.8,57.5,37.9,69.7,31.7,82.3z"/>
	<path class="st1" d="M80.3,46.6c0,0,11.2-1.3,14.6-1.9c3.4-0.6,8.4,0,7.8,2.6c-0.5,2.6-4.1,4.9-8.9,5.8s-13.9,0.8-17.2-3.2
		C74.5,47.3,80.3,46.6,80.3,46.6z"/>
	<path class="st2" d="M83.5,25.1c0,0,2.4,15.6,3.1,17.4c-1.5-0.6-4.9-3.8-4.9-3.8l-1.4,3.8c0,0,5.3,8.1,5.7,8.2
		c1.5,0.5,7.9,0.8,7.9-2.7c0-0.6-4.1-22.8-4.1-22.8H83.5z"/>
	<ellipse class="st3" cx="86.6" cy="25.1" rx="3.1" ry="1.4"/>
	<g>
		<path class="st4" d="M83.4,36.9c0,0-4.6-12.8-38.4-14.5C11.2,20.7,10.7,21,5.9,19.3c0,0,0,0.1,0,0.1c17.2,7.5,46.4,18.4,76.9,22
			C83.4,40.2,83.7,38.4,83.4,36.9z"/>
		<path class="st5" d="M5.9,19.4c1.5,5.8,15.6,18.2,29.5,23.2c12.3,4.5,42.2,8.3,47.4-1.2C52.3,37.8,23.1,26.8,5.9,19.4z"/>
	</g>
	<path class="st6" d="M121.5,86c-6.6-9.4-14.3-20.1-13.4-28.1c0.9-8,12.1-12,20.5-8.9c8.5,3.1,27.7,12.9,31.7,27.2
		c4,14.3-1.8,30.8-7.6,34.8c-5.8,4-17,10.4-21.4-2.2C126.9,96.2,125,90.9,121.5,86z"/>
	<path class="st7" d="M58.8,144.6c4.8,4.3,12.7,15.1,21.4,16c8.7,0.9,28.5-0.3,27.8,5.1c-0.7,5.4-2.8,10.9-21,8.1
		c-18.3-2.7-32.7-6.9-39.4-17.5C41,145.8,46.7,133.8,58.8,144.6z"/>
</g>
</svg>
