<?xml version="1.0" encoding="utf-8"?>
<!-- Generator: Adobe Illustrator 21.1.0, SVG Export Plug-In . SVG Version: 6.00 Build 0)  -->
<svg version="1.1" id="圖層_1" xmlns="http://www.w3.org/2000/svg" xmlns:xlink="http://www.w3.org/1999/xlink" x="0px" y="0px"
	 viewBox="0 0 200 200" style="enable-background:new 0 0 200 200;" xml:space="preserve">
<style type="text/css">
	.st0{fill:#E82500;}
	.st1{opacity:0.1;fill:#FFFFFF;}
	.st2{opacity:0.1;}
	.st3{fill:#69BF41;}
</style>
<g>
	<path class="st0" d="M20.9,88.9c-4,15.2-2.5,79.8,76.8,79.8s86.3-56,81.3-79.8s-30.7-38-49-35.9c-18.3,2.1-31.1,5-48.1,1.7
		S29.7,55.9,20.9,88.9z"/>
	<path class="st1" d="M33.1,77.6c0,0,22.7-28.6,57.1-17.3s34.4,56.2,33.2,61.7s-3.7,49.6-54.8,36.6S21.9,95.2,33.1,77.6z"/>
	<path class="st1" d="M38.3,82.5c0,0,10.4-16.2,23.7-14.1c13.3,2-4,10.7-7.8,14.1c-3.7,3.5-7.8,15.6-10.7,19.9
		c-2.9,4.3-10.5,3.7-10.1-4.1C33.8,91.6,35.4,87.1,38.3,82.5z"/>
	<path class="st2" d="M136,52.3l-10.8,1.3c-15.8,2-27.8,4.1-43.3,1.1c-4.9-1-11.4-1.3-18.3-0.4c7.1,2.8,19.2,7.8,19.8,9
		C78.8,66.7,63.7,77.4,65.9,96c14.2-1.1,31.7-25.9,31.5-23.5c-0.2,2.4-1,29.5,17.1,27.5c3.2-14,2.2-26.3,2.2-26.3s25,3.8,27.8,6.5
		c2.8-5,2.3-18.9-15.3-21.7c7.3-1.4,13.8-2.4,18.7-3.1C146.2,54.8,137.6,52.7,136,52.3z"/>
	<path class="st3" d="M89,44.8c0,0,5.8,6.6,4.6,16.6c5.8,1.2,11.9,3.1,12.2,0.9c0.3-2.2-1.4-15.3-10.7-20.9
		C92.9,41.4,89.9,40.2,89,44.8z"/>
	<path class="st3" d="M144.5,51.3c-5.9-1.6-20.5-6.3-42.3,5.9c0,0-7.4,2.8-8.5-0.9c0,0-15.7-9.3-31.7-5.8C69.8,53,84.8,57.1,89.9,63
		c-10.1,8.1-19,18.5-20.8,28.9c8.7-6.5,23.9-26.5,31.6-25.2c0,7.8,1.8,27.1,11.2,29.3c-2.2-12.2-2.6-28.9-1.4-29.2
		c7.4,0.7,30.1,5.1,32.8,9.3c-1.4-3.3-15.5-15.4-27.3-16.7C124.5,54.5,137.2,51.4,144.5,51.3c-5.9-1.6-20.3-5.8-42.3,5.9"/>
</g>
</svg>
