<?xml version="1.0" encoding="utf-8"?>
<!-- Generator: Adobe Illustrator 21.1.0, SVG Export Plug-In . SVG Version: 6.00 Build 0)  -->
<svg version="1.1" id="圖層_1" xmlns="http://www.w3.org/2000/svg" xmlns:xlink="http://www.w3.org/1999/xlink" x="0px" y="0px"
	 viewBox="0 0 200 200" style="enable-background:new 0 0 200 200;" xml:space="preserve">
<style type="text/css">
	.st0{fill:#BB4134;}
	.st1{fill:#F04134;}
	.st2{fill:#FF423B;}
	.st3{fill:#58A13F;}
	.st4{fill:#DBE9AC;}
	.st5{opacity:0.15;enable-background:new    ;}
</style>
<g>
	<polygon class="st0" points="42.1,71.7 48.6,66.5 50.1,72.2 43.6,74.5 	"/>
	<polygon class="st0" points="84.7,24.2 81.8,27.7 84.7,29.5 85.9,26.5 	"/>
	<polygon class="st1" points="136.8,56.9 125.8,52.4 131,65.4 139.2,63.7 	"/>
	<path class="st2" d="M136.8,56.9c-1.5,0.9-2.7,2.2-3.2,4.8c-1.1-4.4-1.7-7.5-2.5-10.9c-13-13.9-24.7-25.3-34.8-33.4l-11.5,6.9
		c-0.5,1.3-1.4,2.3-0.6,3.9c-1-0.6-1.9-1-2.9-1.7L76,29.6c0,0-14.1,16.7-29.8,37.1c0.6,1.4,1.2,2.8,1.8,4.1c-1.9,0-3.9,0.3-5.7,0.9
		C28.7,89.5,14.8,109.1,8,122.8c3.2,12,13.1,35.1,15.4,37.4c2.4,2.4,99.3,68.1,168.6-37.4C184.3,111.6,160.7,82.8,136.8,56.9z"/>
	<path class="st3" d="M126.5,170.9c-36.8,14.5-85.7-2.8-99-15.4c-9.7-9.1-15.5-26.6-18.1-35.5c-0.6,1-1,1.9-1.5,2.9
		c3.2,12,13.1,35.1,15.4,37.4c2.4,2.4,99.3,68.1,168.6-37.4c-0.6-1-1.5-2.1-2.4-3.3C181,136.2,159.7,157.7,126.5,170.9z"/>
	<path class="st4" d="M27.6,155.6c13.3,12.6,62.2,29.9,99,15.4c33.2-13.2,54.5-34.7,63.1-51.3c-2.6-3.6-6.1-8.1-10.3-13.3
		c-42.2,75.8-120.1,50.9-138.2,40.5c-14.7-8.5-23.9-27.7-27-35c-1.7,2.9-3.3,5.7-4.7,8.3C12,129,17.9,146.5,27.6,155.6z"/>
	<g>
		<path d="M85.5,88.2c-0.4,1.2-1.6,1.8-2.8,1.6c-1.2-0.4-1.8-1.6-1.6-2.8c0.2-0.7,1.8-3,2.9-4.4c0.4-0.5,1.1-0.3,1.1,0.3
			C85.4,84.7,85.6,87.4,85.5,88.2z"/>
		<path d="M87.7,121.5c-0.4,1.2-1.6,1.8-2.8,1.6c-1.2-0.4-1.8-1.6-1.6-2.8c0.2-0.7,1.8-3,2.9-4.4c0.4-0.5,1.1-0.3,1.1,0.3
			C87.6,118,87.9,120.7,87.7,121.5z"/>
		<path d="M109.3,101c0.3,1.2-0.6,2.4-1.7,2.6c-1.2,0.2-2.4-0.6-2.6-1.7c-0.2-0.8,0.3-3.5,0.6-5.2c0.1-0.6,0.8-0.7,1.2-0.3
			C107.7,97.9,109.2,100.3,109.3,101z"/>
		<path d="M149,88.3c0.6,1.1,0.1,2.4-1,2.9c-1.1,0.6-2.4,0.1-2.9-1c-0.4-0.7-0.6-3.5-0.7-5.2c0-0.6,0.6-0.9,1.1-0.6
			C146.6,85.7,148.7,87.5,149,88.3z"/>
		<path d="M127.4,82.9c0.5,1.1-0.1,2.4-1.2,2.9c-1.1,0.5-2.4-0.1-2.9-1.2c-0.3-0.7-0.4-3.5-0.5-5.2c0-0.6,0.6-0.8,1.1-0.5
			C125.2,80.3,127,82.2,127.4,82.9z"/>
		<path d="M133.4,114.6c0.2,1.2-0.6,2.4-1.8,2.6c-1.2,0.2-2.4-0.6-2.6-1.8c-0.2-0.8,0.4-3.5,0.7-5.2c0.1-0.6,0.8-0.7,1.2-0.2
			C131.8,111.4,133.3,113.7,133.4,114.6z"/>
		<path d="M67.2,105.8c-0.5,1.1-1.7,1.7-2.9,1.2c-1.1-0.5-1.7-1.7-1.2-2.9c0.3-0.7,2.2-2.8,3.4-4c0.4-0.5,1.1-0.1,1.1,0.5
			C67.7,102.4,67.6,105.1,67.2,105.8z"/>
		<path d="M56,67.7c-0.6,0.6-1.6,0.7-2.2,0.2c-0.6-0.6-0.7-1.6-0.2-2.2c0.4-0.5,2-1.4,3.1-2c0.4-0.2,0.7,0.2,0.6,0.6
			C56.9,65.4,56.4,67.3,56,67.7z"/>
		<path d="M35,92.7c-0.6,0.6-1.6,0.7-2.2,0.2s-0.7-1.6-0.2-2.2c0.4-0.5,2-1.4,3.1-2c0.4-0.2,0.7,0.2,0.6,0.6
			C36.1,90.4,35.4,92.2,35,92.7z"/>
		<path d="M50.3,85.5c-0.6,0.6-1.6,0.7-2.2,0.2c-0.6-0.6-0.7-1.6-0.2-2.2c0.4-0.5,2-1.4,3.1-2c0.4-0.2,0.7,0.2,0.6,0.6
			C51.3,83.2,50.7,85,50.3,85.5z"/>
		<path d="M114.3,133.4c0.5,1.2-0.2,2.4-1.3,2.9c-1.1,0.5-2.4-0.2-2.9-1.3c-0.3-0.7-0.3-3.5-0.2-5.2c0-0.6,0.7-0.8,1.1-0.4
			C112.1,130.6,114,132.7,114.3,133.4z"/>
	</g>
	<path class="st5" d="M96.3,17.3l-11.5,6.9c-0.5,1.3-1.4,2.3-0.6,3.9c-1-0.6-2-1.1-2.9-1.7L76,29.6c0,0-14.1,16.7-29.8,37.1
		c0.6,1.4,1.2,2.8,1.8,4.1c-1.9,0-3.9,0.3-5.7,0.9C28.7,89.5,14.8,109.1,8,122.8c3.2,12,13.1,35.1,15.4,37.4
		c0.1,0.1,0.5,0.5,1.1,0.8C38.2,116.4,85,37.9,97.1,18C96.9,17.8,96.6,17.6,96.3,17.3z"/>
</g>
</svg>
