<?xml version="1.0" encoding="utf-8"?>
<!-- Generator: Adobe Illustrator 21.1.0, SVG Export Plug-In . SVG Version: 6.00 Build 0)  -->
<svg version="1.1" id="圖層_1" xmlns="http://www.w3.org/2000/svg" xmlns:xlink="http://www.w3.org/1999/xlink" x="0px" y="0px"
	 viewBox="0 0 200 200" style="enable-background:new 0 0 200 200;" xml:space="preserve">
<style type="text/css">
	.st0{fill:#9BC83A;}
	.st1{opacity:0.7;fill:#9BC83A;}
	.st2{fill:#008442;}
	.st3{fill:#7FBE3E;}
	.st4{fill:#6EB944;}
	.st5{fill:none;stroke:#00A63C;stroke-width:1.9079;stroke-linecap:round;stroke-linejoin:round;stroke-miterlimit:10;}
	.st6{fill:none;stroke:#00A63C;stroke-width:1.0938;stroke-linecap:round;stroke-linejoin:round;stroke-miterlimit:10;}
	.st7{opacity:5.000000e-02;}
</style>
<g>
	<path class="st0" d="M107.8,11.4"/>
	<ellipse class="st1" cx="100" cy="39.5" rx="2.9" ry="1"/>
	<rect x="100" y="25" transform="matrix(0.9833 -0.1821 0.1821 0.9833 -2.9096 19.3415)" class="st2" width="7.7" height="1"/>
	
		<rect x="93.3" y="22.3" transform="matrix(-0.6057 -0.7957 0.7957 -0.6057 137.8053 113.8257)" class="st2" width="7.7" height="1"/>
	<path class="st2" d="M98,18.4l0.5,3v17.7c0,0.4,0.6,0.7,1.4,0.7c0.8,0,1.4-0.3,1.4-0.7V21.5l0.5-3.1H98z"/>
	<ellipse class="st3" cx="100" cy="18.4" rx="2" ry="1"/>
	<path class="st4" d="M146.1,21.7c-2.7,9.7-29.5,19.1-40.4,3.4C120.8,27.6,146.1,21.7,146.1,21.7z"/>
	<path class="st0" d="M146.1,21.7c0,0-25.4,5.9-40.4,3.4C106.9,19.2,129.4,6.4,146.1,21.7z"/>
	<path class="st5" d="M109.9,25.5c10.2,2.1,22.9-0.2,29.7-2.5"/>
	<path class="st5" d="M118.4,20.7c0,0-3.7,2.1-3,4.9"/>
	<path class="st5" d="M119.2,26.3c0,0,1.1,2.6,4.1,3.4"/>
	<path class="st5" d="M125.7,25.3c0,0,0-4.5,3-5.9"/>
	<path class="st5" d="M124.4,25.5c0,0,3.8,2.6,6.1,2.5"/>
	<g>
		<path class="st4" d="M83.6,0.1c5.7-0.9,17.1,10.6,11.6,20.1C92.9,11.8,83.6,0.1,83.6,0.1z"/>
		<path class="st0" d="M83.6,0.1c0,0,9.3,11.7,11.6,20.1C91.9,21,79.8,12.5,83.6,0.1z"/>
		<path class="st6" d="M94.5,17.9c-1.4-5.8-5.7-11.8-8.5-14.8"/>
		<path class="st6" d="M89.9,14.7c0,0,2,1.4,3.3,0.4"/>
		<path class="st6" d="M92.6,12.9c0,0,1.1-1.2,0.8-3"/>
		<path class="st6" d="M90.5,9.8c0,0-2.3,1.1-3.8-0.1"/>
		<path class="st6" d="M89.8,8c0,0,0.4-2.6-0.2-3.8"/>
	</g>
	<path class="st0" d="M151.6,95.3c-5.8-8.2-7.5-20.7-10.8-29.5c-8.3-22.1-20.1-29.1-29.2-32c-3.9-1.2-9.8,0.6-11.5,2
		c-1.7-1.4-7.6-3.2-11.5-2c-9.1,2.9-20.9,9.9-29.2,32c-3.3,8.8-5,21.2-10.8,29.5c-13,18.6-23.2,30.4-23.2,52.6
		c0,35.9,32.6,51.3,73.4,52v0c0.5,0,0.9,0,1.4,0c0.5,0,0.9,0,1.4,0v0c40.8-0.7,73.4-16.2,73.4-52
		C174.8,125.7,164.6,113.9,151.6,95.3z"/>
	<path class="st7" d="M100,35.9c-1.7-1.4-7.6-3.2-11.5-2c-9.1,2.9-20.9,9.9-29.2,32c-3.3,8.8-5,21.2-10.8,29.5
		c-13,18.6-23.2,30.4-23.2,52.6c0,35.9,32.6,51.3,73.4,52v0c0.5,0,0.9,0,1.4,0c0,0,0,0,0,0L100,35.9C100,35.9,100,35.9,100,35.9z"/>
</g>
</svg>
